<?xml version="1.0" standalone="no"?>
<!DOCTYPE svg PUBLIC "-//W3C//DTD SVG 20010904//EN"
 "http://www.w3.org/TR/2001/REC-SVG-20010904/DTD/svg10.dtd">
<svg version="1.0" xmlns="http://www.w3.org/2000/svg"
 width="512.000000pt" height="512.000000pt" viewBox="0 0 512.000000 512.000000"
 preserveAspectRatio="xMidYMid meet">
<g transform="translate(0.000000,512.000000) scale(0.100000,-0.100000)"
fill="#000000" stroke="none">
<path d="M2369 5116 c-2 -2 -36 -6 -74 -10 -39 -4 -81 -8 -95 -11 -31 -5 -135
-23 -174 -31 -58 -10 -243 -63 -331 -94 -345 -123 -676 -333 -942 -598 -264
-264 -463 -573 -592 -919 -38 -102 -93 -287 -105 -350 -2 -15 -9 -53 -15 -83
-29 -159 -36 -244 -35 -470 0 -113 4 -234 8 -270 5 -36 10 -72 11 -80 8 -66
32 -184 57 -280 142 -549 457 -1029 909 -1382 333 -259 758 -445 1154 -504 22
-3 51 -8 65 -10 81 -13 176 -19 345 -19 239 0 376 14 565 57 590 134 1112 469
1481 953 68 89 159 230 203 315 22 41 47 89 56 105 94 172 207 539 236 770 3
28 8 61 10 75 9 49 12 457 4 525 -18 144 -22 171 -40 261 -140 679 -529 1252
-1112 1637 -113 74 -318 184 -428 227 -142 57 -380 128 -490 146 -14 2 -38 6
-55 9 -16 3 -50 8 -75 11 -25 3 -56 8 -70 11 -28 5 -466 14 -471 9z m461 -411
c152 -19 419 -89 538 -141 297 -129 508 -269 713 -473 253 -253 427 -535 538
-878 17 -51 33 -109 37 -130 l7 -37 -39 31 c-225 178 -404 321 -547 437 l-118
95 -157 -160 -157 -161 -79 84 c-240 254 -382 403 -472 496 l-101 105 -126
-106 c-486 -407 -900 -670 -1297 -824 -126 -49 -338 -118 -420 -137 -8 -2 -42
-11 -75 -19 -33 -9 -71 -18 -85 -21 -14 -3 -54 -12 -90 -20 -36 -8 -78 -17
-95 -19 -16 -3 -70 -13 -120 -22 -49 -8 -101 -18 -114 -20 -13 -2 -45 -7 -70
-10 -25 -3 -57 -8 -70 -11 -23 -5 -23 -4 -16 53 4 31 8 65 10 74 2 9 6 34 9
55 4 22 8 46 11 54 2 8 6 26 9 40 54 287 233 646 456 915 58 70 241 245 323
309 244 189 573 347 837 400 142 28 191 37 248 42 37 4 69 8 71 10 6 5 388 -4
441 -11z m320 -1475 c19 -20 94 -99 165 -175 72 -75 174 -183 227 -239 l98
-101 173 174 c95 96 177 174 181 174 6 -1 51 -36 254 -198 7 -5 18 -14 25 -20
7 -5 35 -28 62 -50 28 -22 55 -44 61 -50 6 -5 81 -66 167 -133 l156 -124 -5
-71 c-8 -130 -22 -227 -31 -227 -2 0 -70 22 -151 49 -139 47 -349 102 -437
115 -22 3 -58 9 -80 12 -156 23 -445 22 -570 -2 -11 -2 -40 -7 -65 -10 -25 -4
-55 -10 -67 -15 -13 -5 -23 -7 -23 -5 0 3 -51 -9 -112 -25 -62 -17 -120 -32
-128 -34 -19 -5 -218 -76 -290 -104 -30 -12 -149 -69 -265 -126 -115 -57 -246
-118 -290 -135 -485 -195 -820 -214 -1268 -74 -103 33 -344 127 -418 165 l-57
28 -21 113 c-11 62 -24 136 -27 164 l-6 51 59 8 c121 15 385 62 553 99 667
145 1163 376 1750 814 63 47 117 89 120 92 3 3 20 17 38 31 l33 25 77 -80 c42
-44 93 -96 112 -116z m765 -1255 c148 -14 365 -68 568 -142 88 -32 97 -37 91
-57 -3 -11 -36 -84 -74 -161 -84 -173 -169 -305 -290 -450 -33 -39 -216 -222
-257 -257 -316 -268 -732 -446 -1154 -495 -83 -10 -416 -9 -494 0 -413 53
-816 227 -1130 488 -45 37 -226 218 -265 264 -84 99 -236 322 -226 332 2 2 25
-5 52 -15 106 -42 349 -103 464 -117 25 -2 70 -8 100 -11 75 -10 247 -10 354
0 293 24 628 135 1043 345 308 155 634 258 884 277 46 4 85 8 87 9 4 3 183 -4
247 -10z"/>
</g>
</svg>
