<svg width="16" height="16" viewBox="0 0 16 16" fill="none" xmlns="http://www.w3.org/2000/svg">
<circle cx="8" cy="8" r="7.375" fill="#F7F9FB" stroke="black" stroke-width="1.25"/>
<mask id="path-2-inside-1_961_67" fill="white">
<path fill-rule="evenodd" clip-rule="evenodd" d="M8 16C12.4183 16 16 12.4183 16 8C16 7.87825 15.9973 7.75713 15.9919 7.6367L12.4091 4.7779L11.4077 5.74942L9.46444 3.74648C6.8208 5.92308 3.5688 7.38752 0.00191612 7.84633C0.0838169 3.49905 3.6334 0.000125408 8.00023 0C8.00016 0 8.00008 0 8 0C3.58172 0 0 3.58172 0 8C0 12.4183 3.58172 16 8 16Z"/>
</mask>
<path fill-rule="evenodd" clip-rule="evenodd" d="M8 16C12.4183 16 16 12.4183 16 8C16 7.87825 15.9973 7.75713 15.9919 7.6367L12.4091 4.7779L11.4077 5.74942L9.46444 3.74648C6.8208 5.92308 3.5688 7.38752 0.00191612 7.84633C0.0838169 3.49905 3.6334 0.000125408 8.00023 0C8.00016 0 8.00008 0 8 0C3.58172 0 0 3.58172 0 8C0 12.4183 3.58172 16 8 16Z" fill="#3EB489"/>
<path d="M15.9919 7.6367L17.2407 7.58089L17.2153 7.01372L16.7715 6.65962L15.9919 7.6367ZM12.4091 4.7779L13.1887 3.80083L12.3285 3.11445L11.5386 3.88076L12.4091 4.7779ZM11.4077 5.74942L10.5106 6.61984L11.381 7.51698L12.2781 6.64657L11.4077 5.74942ZM9.46444 3.74648L10.3616 2.87606L9.55934 2.04918L8.66992 2.78147L9.46444 3.74648ZM0.00191612 7.84633L-1.24786 7.82278L-1.27514 9.27089L0.161389 9.08611L0.00191612 7.84633ZM8.00023 0L8.00027 1.25L8.00023 -1.25V0ZM14.75 8C14.75 11.7279 11.7279 14.75 8 14.75V17.25C13.1086 17.25 17.25 13.1086 17.25 8H14.75ZM14.7431 7.69252C14.7477 7.79436 14.75 7.89686 14.75 8H17.25C17.25 7.85963 17.2469 7.7199 17.2407 7.58089L14.7431 7.69252ZM11.6294 5.75498L15.2123 8.61378L16.7715 6.65962L13.1887 3.80083L11.6294 5.75498ZM12.2781 6.64657L13.2795 5.67505L11.5386 3.88076L10.5373 4.85227L12.2781 6.64657ZM8.5673 4.6169L10.5106 6.61984L12.3049 4.879L10.3616 2.87606L8.5673 4.6169ZM0.161389 9.08611C3.96869 8.59638 7.43932 7.03299 10.259 4.71148L8.66992 2.78147C6.20229 4.81316 3.16891 6.17866 -0.157557 6.60654L0.161389 9.08611ZM8.0002 -1.25C2.95091 -1.24985 -1.15316 2.79575 -1.24786 7.82278L1.25169 7.86987C1.32079 4.20235 4.31589 1.25011 8.00027 1.25L8.0002 -1.25ZM8 1.25C8 1.25 8 1.25 8 1.25C8 1.25 8 1.25 8 1.25C8 1.25 8 1.25 8 1.25C8 1.25 8 1.25 8 1.25C8 1.25 8 1.25 8 1.25C8 1.25 8 1.25 8 1.25C8 1.25 8 1.25 8 1.25C8 1.25 8 1.25 8 1.25C8 1.25 8 1.25 8 1.25C8 1.25 8 1.25 8 1.25C8 1.25 8 1.25 8.00001 1.25C8.00001 1.25 8.00001 1.25 8.00001 1.25C8.00001 1.25 8.00001 1.25 8.00001 1.25C8.00001 1.25 8.00001 1.25 8.00001 1.25C8.00001 1.25 8.00001 1.25 8.00001 1.25C8.00001 1.25 8.00001 1.25 8.00001 1.25C8.00001 1.25 8.00001 1.25 8.00001 1.25C8.00001 1.25 8.00001 1.25 8.00001 1.25C8.00001 1.25 8.00001 1.25 8.00001 1.25C8.00001 1.25 8.00001 1.25 8.00001 1.25C8.00001 1.25 8.00001 1.25 8.00001 1.25C8.00001 1.25 8.00001 1.25 8.00001 1.25C8.00001 1.25 8.00001 1.25 8.00001 1.25C8.00001 1.25 8.00001 1.25 8.00001 1.25C8.00001 1.25 8.00001 1.25 8.00001 1.25C8.00001 1.25 8.00001 1.25 8.00001 1.25C8.00001 1.25 8.00001 1.25 8.00001 1.25C8.00001 1.25 8.00001 1.25 8.00001 1.25C8.00001 1.25 8.00001 1.25 8.00001 1.25C8.00001 1.25 8.00001 1.25 8.00001 1.25C8.00001 1.25 8.00001 1.25 8.00001 1.25C8.00001 1.25 8.00001 1.25 8.00001 1.25C8.00001 1.25 8.00001 1.25 8.00002 1.25C8.00002 1.25 8.00002 1.25 8.00002 1.25C8.00002 1.25 8.00002 1.25 8.00002 1.25C8.00002 1.25 8.00002 1.25 8.00002 1.25C8.00002 1.25 8.00002 1.25 8.00002 1.25C8.00002 1.25 8.00002 1.25 8.00002 1.25C8.00002 1.25 8.00002 1.25 8.00002 1.25C8.00002 1.25 8.00002 1.25 8.00002 1.25C8.00002 1.25 8.00002 1.25 8.00002 1.25C8.00002 1.25 8.00002 1.25 8.00002 1.25C8.00002 1.25 8.00002 1.25 8.00002 1.25C8.00002 1.25 8.00002 1.25 8.00002 1.25C8.00002 1.25 8.00002 1.25 8.00002 1.25C8.00002 1.25 8.00002 1.25 8.00002 1.25C8.00002 1.25 8.00002 1.25 8.00002 1.25C8.00002 1.25 8.00002 1.25 8.00002 1.25C8.00002 1.25 8.00002 1.25 8.00002 1.25C8.00002 1.25 8.00002 1.25 8.00002 1.25C8.00002 1.25 8.00002 1.25 8.00002 1.25C8.00002 1.25 8.00002 1.25 8.00002 1.25C8.00002 1.25 8.00002 1.25 8.00002 1.25C8.00002 1.25 8.00002 1.25 8.00002 1.25C8.00002 1.25 8.00003 1.25 8.00003 1.25C8.00003 1.25 8.00003 1.25 8.00003 1.25C8.00003 1.25 8.00003 1.25 8.00003 1.25C8.00003 1.25 8.00003 1.25 8.00003 1.25C8.00003 1.25 8.00003 1.25 8.00003 1.25C8.00003 1.25 8.00003 1.25 8.00003 1.25C8.00003 1.25 8.00003 1.25 8.00003 1.25C8.00003 1.25 8.00003 1.25 8.00003 1.25C8.00003 1.25 8.00003 1.25 8.00003 1.25C8.00003 1.25 8.00003 1.25 8.00003 1.25C8.00003 1.25 8.00003 1.25 8.00003 1.25C8.00003 1.25 8.00003 1.25 8.00003 1.25C8.00003 1.25 8.00003 1.25 8.00003 1.25C8.00003 1.25 8.00003 1.25 8.00003 1.25C8.00003 1.25 8.00003 1.25 8.00003 1.25C8.00003 1.25 8.00003 1.25 8.00003 1.25C8.00003 1.25 8.00003 1.25 8.00003 1.25C8.00003 1.25 8.00003 1.25 8.00003 1.25C8.00003 1.25 8.00003 1.25 8.00003 1.25C8.00003 1.25 8.00003 1.25 8.00003 1.25C8.00003 1.25 8.00003 1.25 8.00003 1.25C8.00003 1.25 8.00003 1.25 8.00003 1.25C8.00003 1.25 8.00004 1.25 8.00004 1.25C8.00004 1.25 8.00004 1.25 8.00004 1.25C8.00004 1.25 8.00004 1.25 8.00004 1.25C8.00004 1.25 8.00004 1.25 8.00004 1.25C8.00004 1.25 8.00004 1.25 8.00004 1.25C8.00004 1.25 8.00004 1.25 8.00004 1.25C8.00004 1.25 8.00004 1.25 8.00004 1.25C8.00004 1.25 8.00004 1.25 8.00004 1.25C8.00004 1.25 8.00004 1.25 8.00004 1.25C8.00004 1.25 8.00004 1.25 8.00004 1.25C8.00004 1.25 8.00004 1.25 8.00004 1.25C8.00004 1.25 8.00004 1.25 8.00004 1.25C8.00004 1.25 8.00004 1.25 8.00004 1.25C8.00004 1.25 8.00004 1.25 8.00004 1.25C8.00004 1.25 8.00004 1.25 8.00004 1.25C8.00004 1.25 8.00004 1.25 8.00004 1.25C8.00004 1.25 8.00004 1.25 8.00004 1.25C8.00004 1.25 8.00004 1.25 8.00004 1.25C8.00004 1.25 8.00004 1.25 8.00004 1.25C8.00004 1.25 8.00004 1.25 8.00004 1.25C8.00004 1.25 8.00004 1.25 8.00004 1.25C8.00004 1.25 8.00004 1.25 8.00004 1.25C8.00004 1.25 8.00005 1.25 8.00005 1.25C8.00005 1.25 8.00005 1.25 8.00005 1.25C8.00005 1.25 8.00005 1.25 8.00005 1.25C8.00005 1.25 8.00005 1.25 8.00005 1.25C8.00005 1.25 8.00005 1.25 8.00005 1.25C8.00005 1.25 8.00005 1.25 8.00005 1.25C8.00005 1.25 8.00005 1.25 8.00005 1.25C8.00005 1.25 8.00005 1.25 8.00005 1.25C8.00005 1.25 8.00005 1.25 8.00005 1.25C8.00005 1.25 8.00005 1.25 8.00005 1.25C8.00005 1.25 8.00005 1.25 8.00005 1.25C8.00005 1.25 8.00005 1.25 8.00005 1.25C8.00005 1.25 8.00005 1.25 8.00005 1.25C8.00005 1.25 8.00005 1.25 8.00005 1.25C8.00005 1.25 8.00005 1.25 8.00005 1.25C8.00005 1.25 8.00005 1.25 8.00005 1.25C8.00005 1.25 8.00005 1.25 8.00005 1.25C8.00005 1.25 8.00005 1.25 8.00005 1.25C8.00005 1.25 8.00005 1.25 8.00005 1.25C8.00005 1.25 8.00005 1.25 8.00005 1.25C8.00005 1.25 8.00005 1.25 8.00005 1.25C8.00005 1.25 8.00005 1.25 8.00005 1.25C8.00006 1.25 8.00006 1.25 8.00006 1.25C8.00006 1.25 8.00006 1.25 8.00006 1.25C8.00006 1.25 8.00006 1.25 8.00006 1.25C8.00006 1.25 8.00006 1.25 8.00006 1.25C8.00006 1.25 8.00006 1.25 8.00006 1.25C8.00006 1.25 8.00006 1.25 8.00006 1.25C8.00006 1.25 8.00006 1.25 8.00006 1.25C8.00006 1.25 8.00006 1.25 8.00006 1.25C8.00006 1.25 8.00006 1.25 8.00006 1.25C8.00006 1.25 8.00006 1.25 8.00006 1.25C8.00006 1.25 8.00006 1.25 8.00006 1.25C8.00006 1.25 8.00006 1.25 8.00006 1.25C8.00006 1.25 8.00006 1.25 8.00006 1.25C8.00006 1.25 8.00006 1.25 8.00006 1.25C8.00006 1.25 8.00006 1.25 8.00006 1.25C8.00006 1.25 8.00006 1.25 8.00006 1.25C8.00006 1.25 8.00006 1.25 8.00006 1.25C8.00006 1.25 8.00006 1.25 8.00006 1.25C8.00006 1.25 8.00006 1.25 8.00006 1.25C8.00006 1.25 8.00006 1.25 8.00006 1.25C8.00006 1.25 8.00006 1.25 8.00006 1.25C8.00006 1.25 8.00006 1.25 8.00006 1.25C8.00007 1.25 8.00007 1.25 8.00007 1.25C8.00007 1.25 8.00007 1.25 8.00007 1.25C8.00007 1.25 8.00007 1.25 8.00007 1.25C8.00007 1.25 8.00007 1.25 8.00007 1.25C8.00007 1.25 8.00007 1.25 8.00007 1.25C8.00007 1.25 8.00007 1.25 8.00007 1.25C8.00007 1.25 8.00007 1.25 8.00007 1.25C8.00007 1.25 8.00007 1.25 8.00007 1.25C8.00007 1.25 8.00007 1.25 8.00007 1.25C8.00007 1.25 8.00007 1.25 8.00007 1.25C8.00007 1.25 8.00007 1.25 8.00007 1.25C8.00007 1.25 8.00007 1.25 8.00007 1.25C8.00007 1.25 8.00007 1.25 8.00007 1.25C8.00007 1.25 8.00007 1.25 8.00007 1.25C8.00007 1.25 8.00007 1.25 8.00007 1.25C8.00007 1.25 8.00007 1.25 8.00007 1.25C8.00007 1.25 8.00007 1.25 8.00007 1.25C8.00007 1.25 8.00007 1.25 8.00007 1.25C8.00007 1.25 8.00007 1.25 8.00007 1.25C8.00007 1.25 8.00007 1.25 8.00007 1.25C8.00007 1.25 8.00007 1.25 8.00007 1.25C8.00007 1.25 8.00007 1.25 8.00007 1.25C8.00008 1.25 8.00008 1.25 8.00008 1.25C8.00008 1.25 8.00008 1.25 8.00008 1.25C8.00008 1.25 8.00008 1.25 8.00008 1.25C8.00008 1.25 8.00008 1.25 8.00008 1.25C8.00008 1.25 8.00008 1.25 8.00008 1.25C8.00008 1.25 8.00008 1.25 8.00008 1.25C8.00008 1.25 8.00008 1.25 8.00008 1.25C8.00008 1.25 8.00008 1.25 8.00008 1.25C8.00008 1.25 8.00008 1.25 8.00008 1.25C8.00008 1.25 8.00008 1.25 8.00008 1.25C8.00008 1.25 8.00008 1.25 8.00008 1.25C8.00008 1.25 8.00008 1.25 8.00008 1.25C8.00008 1.25 8.00008 1.25 8.00008 1.25C8.00008 1.25 8.00008 1.25 8.00008 1.25C8.00008 1.25 8.00008 1.25 8.00008 1.25C8.00008 1.25 8.00008 1.25 8.00008 1.25C8.00008 1.25 8.00008 1.25 8.00008 1.25C8.00008 1.25 8.00008 1.25 8.00008 1.25C8.00008 1.25 8.00008 1.25 8.00008 1.25C8.00008 1.25 8.00008 1.25 8.00008 1.25C8.00008 1.25 8.00008 1.25 8.00008 1.25C8.00008 1.25 8.00008 1.25 8.00008 1.25C8.00009 1.25 8.00009 1.25 8.00009 1.25C8.00009 1.25 8.00009 1.25 8.00009 1.25C8.00009 1.25 8.00009 1.25 8.00009 1.25C8.00009 1.25 8.00009 1.25 8.00009 1.25C8.00009 1.25 8.00009 1.25 8.00009 1.25C8.00009 1.25 8.00009 1.25 8.00009 1.25C8.00009 1.25 8.00009 1.25 8.00009 1.25C8.00009 1.25 8.00009 1.25 8.00009 1.25C8.00009 1.25 8.00009 1.25 8.00009 1.25C8.00009 1.25 8.00009 1.25 8.00009 1.25C8.00009 1.25 8.00009 1.25 8.00009 1.25C8.00009 1.25 8.00009 1.25 8.00009 1.25C8.00009 1.25 8.00009 1.25 8.00009 1.25C8.00009 1.25 8.00009 1.25 8.00009 1.25C8.00009 1.25 8.00009 1.25 8.00009 1.25C8.00009 1.25 8.00009 1.25 8.00009 1.25C8.00009 1.25 8.00009 1.25 8.00009 1.25C8.00009 1.25 8.00009 1.25 8.00009 1.25C8.00009 1.25 8.00009 1.25 8.00009 1.25C8.00009 1.25 8.00009 1.25 8.00009 1.25C8.00009 1.25 8.00009 1.25 8.00009 1.25C8.00009 1.25 8.00009 1.25 8.00009 1.25C8.0001 1.25 8.0001 1.25 8.0001 1.25C8.0001 1.25 8.0001 1.25 8.0001 1.25C8.0001 1.25 8.0001 1.25 8.0001 1.25C8.0001 1.25 8.0001 1.25 8.0001 1.25C8.0001 1.25 8.0001 1.25 8.0001 1.25C8.0001 1.25 8.0001 1.25 8.0001 1.25C8.0001 1.25 8.0001 1.25 8.0001 1.25C8.0001 1.25 8.0001 1.25 8.0001 1.25C8.0001 1.25 8.0001 1.25 8.0001 1.25C8.0001 1.25 8.0001 1.25 8.0001 1.25C8.0001 1.25 8.0001 1.25 8.0001 1.25C8.0001 1.25 8.0001 1.25 8.0001 1.25C8.0001 1.25 8.0001 1.25 8.0001 1.25C8.0001 1.25 8.0001 1.25 8.0001 1.25C8.0001 1.25 8.0001 1.25 8.0001 1.25C8.0001 1.25 8.0001 1.25 8.0001 1.25C8.0001 1.25 8.0001 1.25 8.0001 1.25C8.0001 1.25 8.0001 1.25 8.0001 1.25C8.0001 1.25 8.0001 1.25 8.0001 1.25C8.0001 1.25 8.0001 1.25 8.0001 1.25C8.0001 1.25 8.0001 1.25 8.0001 1.25C8.0001 1.25 8.0001 1.25 8.0001 1.25C8.00011 1.25 8.00011 1.25 8.00011 1.25C8.00011 1.25 8.00011 1.25 8.00011 1.25C8.00011 1.25 8.00011 1.25 8.00011 1.25C8.00011 1.25 8.00011 1.25 8.00011 1.25C8.00011 1.25 8.00011 1.25 8.00011 1.25C8.00011 1.25 8.00011 1.25 8.00011 1.25C8.00011 1.25 8.00011 1.25 8.00011 1.25C8.00011 1.25 8.00011 1.25 8.00011 1.25C8.00011 1.25 8.00011 1.25 8.00011 1.25C8.00011 1.25 8.00011 1.25 8.00011 1.25C8.00011 1.25 8.00011 1.25 8.00011 1.25C8.00011 1.25 8.00011 1.25 8.00011 1.25C8.00011 1.25 8.00011 1.25 8.00011 1.25C8.00011 1.25 8.00011 1.25 8.00011 1.25C8.00011 1.25 8.00011 1.25 8.00011 1.25C8.00011 1.25 8.00011 1.25 8.00011 1.25C8.00011 1.25 8.00011 1.25 8.00011 1.25C8.00011 1.25 8.00011 1.25 8.00011 1.25C8.00011 1.25 8.00011 1.25 8.00011 1.25C8.00011 1.25 8.00011 1.25 8.00011 1.25C8.00011 1.25 8.00011 1.25 8.00011 1.25C8.00011 1.25 8.00011 1.25 8.00012 1.25C8.00012 1.25 8.00012 1.25 8.00012 1.25C8.00012 1.25 8.00012 1.25 8.00012 1.25C8.00012 1.25 8.00012 1.25 8.00012 1.25C8.00012 1.25 8.00012 1.25 8.00012 1.25C8.00012 1.25 8.00012 1.25 8.00012 1.25C8.00012 1.25 8.00012 1.25 8.00012 1.25C8.00012 1.25 8.00012 1.25 8.00012 1.25C8.00012 1.25 8.00012 1.25 8.00012 1.25C8.00012 1.25 8.00012 1.25 8.00012 1.25C8.00012 1.25 8.00012 1.25 8.00012 1.25C8.00012 1.25 8.00012 1.25 8.00012 1.25C8.00012 1.25 8.00012 1.25 8.00012 1.25C8.00012 1.25 8.00012 1.25 8.00012 1.25C8.00012 1.25 8.00012 1.25 8.00012 1.25C8.00012 1.25 8.00012 1.25 8.00012 1.25C8.00012 1.25 8.00012 1.25 8.00012 1.25C8.00012 1.25 8.00012 1.25 8.00012 1.25C8.00012 1.25 8.00012 1.25 8.00012 1.25C8.00012 1.25 8.00012 1.25 8.00012 1.25C8.00012 1.25 8.00012 1.25 8.00012 1.25C8.00012 1.25 8.00012 1.25 8.00012 1.25C8.00012 1.25 8.00012 1.25 8.00013 1.25C8.00013 1.25 8.00013 1.25 8.00013 1.25C8.00013 1.25 8.00013 1.25 8.00013 1.25C8.00013 1.25 8.00013 1.25 8.00013 1.25C8.00013 1.25 8.00013 1.25 8.00013 1.25C8.00013 1.25 8.00013 1.25 8.00013 1.25C8.00013 1.25 8.00013 1.25 8.00013 1.25C8.00013 1.25 8.00013 1.25 8.00013 1.25C8.00013 1.25 8.00013 1.25 8.00013 1.25C8.00013 1.25 8.00013 1.25 8.00013 1.25C8.00013 1.25 8.00013 1.25 8.00013 1.25C8.00013 1.25 8.00013 1.25 8.00013 1.25C8.00013 1.25 8.00013 1.25 8.00013 1.25C8.00013 1.25 8.00013 1.25 8.00013 1.25C8.00013 1.25 8.00013 1.25 8.00013 1.25C8.00013 1.25 8.00013 1.25 8.00013 1.25C8.00013 1.25 8.00013 1.25 8.00013 1.25C8.00013 1.25 8.00013 1.25 8.00013 1.25C8.00013 1.25 8.00013 1.25 8.00013 1.25C8.00013 1.25 8.00013 1.25 8.00013 1.25C8.00013 1.25 8.00013 1.25 8.00013 1.25C8.00013 1.25 8.00013 1.25 8.00013 1.25C8.00013 1.25 8.00013 1.25 8.00014 1.25C8.00014 1.25 8.00014 1.25 8.00014 1.25C8.00014 1.25 8.00014 1.25 8.00014 1.25C8.00014 1.25 8.00014 1.25 8.00014 1.25C8.00014 1.25 8.00014 1.25 8.00014 1.25C8.00014 1.25 8.00014 1.25 8.00014 1.25C8.00014 1.25 8.00014 1.25 8.00014 1.25C8.00014 1.25 8.00014 1.25 8.00014 1.25C8.00014 1.25 8.00014 1.25 8.00014 1.25C8.00014 1.25 8.00014 1.25 8.00014 1.25C8.00014 1.25 8.00014 1.25 8.00014 1.25C8.00014 1.25 8.00014 1.25 8.00014 1.25C8.00014 1.25 8.00014 1.25 8.00014 1.25C8.00014 1.25 8.00014 1.25 8.00014 1.25C8.00014 1.25 8.00014 1.25 8.00014 1.25C8.00014 1.25 8.00014 1.25 8.00014 1.25C8.00014 1.25 8.00014 1.25 8.00014 1.25C8.00014 1.25 8.00014 1.25 8.00014 1.25C8.00014 1.25 8.00014 1.25 8.00014 1.25C8.00014 1.25 8.00014 1.25 8.00014 1.25C8.00014 1.25 8.00014 1.25 8.00014 1.25C8.00014 1.25 8.00014 1.25 8.00014 1.25C8.00014 1.25 8.00014 1.25 8.00015 1.25C8.00015 1.25 8.00015 1.25 8.00015 1.25C8.00015 1.25 8.00015 1.25 8.00015 1.25C8.00015 1.25 8.00015 1.25 8.00015 1.25C8.00015 1.25 8.00015 1.25 8.00015 1.25C8.00015 1.25 8.00015 1.25 8.00015 1.25C8.00015 1.25 8.00015 1.25 8.00015 1.25C8.00015 1.25 8.00015 1.25 8.00015 1.25C8.00015 1.25 8.00015 1.25 8.00015 1.25C8.00015 1.25 8.00015 1.25 8.00015 1.25C8.00015 1.25 8.00015 1.25 8.00015 1.25C8.00015 1.25 8.00015 1.25 8.00015 1.25C8.00015 1.25 8.00015 1.25 8.00015 1.25C8.00015 1.25 8.00015 1.25 8.00015 1.25C8.00015 1.25 8.00015 1.25 8.00015 1.25C8.00015 1.25 8.00015 1.25 8.00015 1.25C8.00015 1.25 8.00015 1.25 8.00015 1.25C8.00015 1.25 8.00015 1.25 8.00015 1.25C8.00015 1.25 8.00015 1.25 8.00015 1.25C8.00015 1.25 8.00015 1.25 8.00015 1.25C8.00015 1.25 8.00015 1.25 8.00015 1.25C8.00015 1.25 8.00015 1.25 8.00015 1.25C8.00015 1.25 8.00015 1.25 8.00016 1.25C8.00016 1.25 8.00016 1.25 8.00016 1.25C8.00016 1.25 8.00016 1.25 8.00016 1.25C8.00016 1.25 8.00016 1.25 8.00016 1.25C8.00016 1.25 8.00016 1.25 8.00016 1.25C8.00016 1.25 8.00016 1.25 8.00016 1.25C8.00016 1.25 8.00016 1.25 8.00016 1.25C8.00016 1.25 8.00016 1.25 8.00016 1.25C8.00016 1.25 8.00016 1.25 8.00016 1.25C8.00016 1.25 8.00016 1.25 8.00016 1.25C8.00016 1.25 8.00016 1.25 8.00016 1.25C8.00016 1.25 8.00016 1.25 8.00016 1.25C8.00016 1.25 8.00016 1.25 8.00016 1.25C8.00016 1.25 8.00016 1.25 8.00016 1.25C8.00016 1.25 8.00016 1.25 8.00016 1.25C8.00016 1.25 8.00016 1.25 8.00016 1.25C8.00016 1.25 8.00016 1.25 8.00016 1.25C8.00016 1.25 8.00016 1.25 8.00016 1.25C8.00016 1.25 8.00016 1.25 8.00016 1.25C8.00016 1.25 8.00016 1.25 8.00016 1.25C8.00016 1.25 8.00016 1.25 8.00016 1.25C8.00016 1.25 8.00016 1.25 8.00016 1.25C8.00016 1.25 8.00016 1.25 8.00017 1.25C8.00017 1.25 8.00017 1.25 8.00017 1.25C8.00017 1.25 8.00017 1.25 8.00017 1.25C8.00017 1.25 8.00017 1.25 8.00017 1.25C8.00017 1.25 8.00017 1.25 8.00017 1.25C8.00017 1.25 8.00017 1.25 8.00017 1.25C8.00017 1.25 8.00017 1.25 8.00017 1.25C8.00017 1.25 8.00017 1.25 8.00017 1.25C8.00017 1.25 8.00017 1.25 8.00017 1.25C8.00017 1.25 8.00017 1.25 8.00017 1.25C8.00017 1.25 8.00017 1.25 8.00017 1.25C8.00017 1.25 8.00017 1.25 8.00017 1.25C8.00017 1.25 8.00017 1.25 8.00017 1.25C8.00017 1.25 8.00017 1.25 8.00017 1.25C8.00017 1.25 8.00017 1.25 8.00017 1.25C8.00017 1.25 8.00017 1.25 8.00017 1.25C8.00017 1.25 8.00017 1.25 8.00017 1.25C8.00017 1.25 8.00017 1.25 8.00017 1.25C8.00017 1.25 8.00017 1.25 8.00017 1.25C8.00017 1.25 8.00017 1.25 8.00017 1.25C8.00017 1.25 8.00017 1.25 8.00017 1.25C8.00017 1.25 8.00017 1.25 8.00017 1.25C8.00017 1.25 8.00017 1.25 8.00018 1.25C8.00018 1.25 8.00018 1.25 8.00018 1.25C8.00018 1.25 8.00018 1.25 8.00018 1.25C8.00018 1.25 8.00018 1.25 8.00018 1.25C8.00018 1.25 8.00018 1.25 8.00018 1.25C8.00018 1.25 8.00018 1.25 8.00018 1.25C8.00018 1.25 8.00018 1.25 8.00018 1.25C8.00018 1.25 8.00018 1.25 8.00018 1.25C8.00018 1.25 8.00018 1.25 8.00018 1.25C8.00018 1.25 8.00018 1.25 8.00018 1.25C8.00018 1.25 8.00018 1.25 8.00018 1.25C8.00018 1.25 8.00018 1.25 8.00018 1.25C8.00018 1.25 8.00018 1.25 8.00018 1.25C8.00018 1.25 8.00018 1.25 8.00018 1.25C8.00018 1.25 8.00018 1.25 8.00018 1.25C8.00018 1.25 8.00018 1.25 8.00018 1.25C8.00018 1.25 8.00018 1.25 8.00018 1.25C8.00018 1.25 8.00018 1.25 8.00018 1.25C8.00018 1.25 8.00018 1.25 8.00018 1.25C8.00018 1.25 8.00018 1.25 8.00018 1.25C8.00018 1.25 8.00018 1.25 8.00018 1.25C8.00018 1.25 8.00018 1.25 8.00018 1.25C8.00018 1.25 8.00019 1.25 8.00019 1.25C8.00019 1.25 8.00019 1.25 8.00019 1.25C8.00019 1.25 8.00019 1.25 8.00019 1.25C8.00019 1.25 8.00019 1.25 8.00019 1.25C8.00019 1.25 8.00019 1.25 8.00019 1.25C8.00019 1.25 8.00019 1.25 8.00019 1.25C8.00019 1.25 8.00019 1.25 8.00019 1.25C8.00019 1.25 8.00019 1.25 8.00019 1.25C8.00019 1.25 8.00019 1.25 8.00019 1.25C8.00019 1.25 8.00019 1.25 8.00019 1.25C8.00019 1.25 8.00019 1.25 8.00019 1.25C8.00019 1.25 8.00019 1.25 8.00019 1.25C8.00019 1.25 8.00019 1.25 8.00019 1.25C8.00019 1.25 8.00019 1.25 8.00019 1.25C8.00019 1.25 8.00019 1.25 8.00019 1.25C8.00019 1.25 8.00019 1.25 8.00019 1.25C8.00019 1.25 8.00019 1.25 8.00019 1.25C8.00019 1.25 8.00019 1.25 8.00019 1.25C8.00019 1.25 8.00019 1.25 8.00019 1.25C8.00019 1.25 8.00019 1.25 8.00019 1.25C8.00019 1.25 8.00019 1.25 8.00019 1.25C8.00019 1.25 8.00019 1.25 8.00019 1.25C8.00019 1.25 8.0002 1.25 8.0002 1.25C8.0002 1.25 8.0002 1.25 8.0002 1.25C8.0002 1.25 8.0002 1.25 8.0002 1.25C8.0002 1.25 8.0002 1.25 8.0002 1.25C8.0002 1.25 8.0002 1.25 8.0002 1.25C8.0002 1.25 8.0002 1.25 8.0002 1.25C8.0002 1.25 8.0002 1.25 8.0002 1.25C8.0002 1.25 8.0002 1.25 8.0002 1.25C8.0002 1.25 8.0002 1.25 8.0002 1.25C8.0002 1.25 8.0002 1.25 8.0002 1.25C8.0002 1.25 8.0002 1.25 8.0002 1.25C8.0002 1.25 8.0002 1.25 8.0002 1.25C8.0002 1.25 8.0002 1.25 8.0002 1.25C8.0002 1.25 8.0002 1.25 8.0002 1.25C8.0002 1.25 8.0002 1.25 8.0002 1.25C8.0002 1.25 8.0002 1.25 8.0002 1.25C8.0002 1.25 8.0002 1.25 8.0002 1.25C8.0002 1.25 8.0002 1.25 8.0002 1.25C8.0002 1.25 8.0002 1.25 8.0002 1.25C8.0002 1.25 8.0002 1.25 8.0002 1.25C8.0002 1.25 8.0002 1.25 8.0002 1.25C8.0002 1.25 8.0002 1.25 8.0002 1.25C8.0002 1.25 8.00021 1.25 8.00021 1.25C8.00021 1.25 8.00021 1.25 8.00021 1.25C8.00021 1.25 8.00021 1.25 8.00021 1.25C8.00021 1.25 8.00021 1.25 8.00021 1.25C8.00021 1.25 8.00021 1.25 8.00021 1.25C8.00021 1.25 8.00021 1.25 8.00021 1.25C8.00021 1.25 8.00021 1.25 8.00021 1.25C8.00021 1.25 8.00021 1.25 8.00021 1.25C8.00021 1.25 8.00021 1.25 8.00021 1.25C8.00021 1.25 8.00021 1.25 8.00021 1.25C8.00021 1.25 8.00021 1.25 8.00021 1.25C8.00021 1.25 8.00021 1.25 8.00021 1.25C8.00021 1.25 8.00021 1.25 8.00021 1.25C8.00021 1.25 8.00021 1.25 8.00021 1.25C8.00021 1.25 8.00021 1.25 8.00021 1.25C8.00021 1.25 8.00021 1.25 8.00021 1.25C8.00021 1.25 8.00021 1.25 8.00021 1.25C8.00021 1.25 8.00021 1.25 8.00021 1.25C8.00021 1.25 8.00021 1.25 8.00021 1.25C8.00021 1.25 8.00021 1.25 8.00021 1.25C8.00021 1.25 8.00021 1.25 8.00021 1.25C8.00021 1.25 8.00021 1.25 8.00021 1.25C8.00022 1.25 8.00022 1.25 8.00022 1.25C8.00022 1.25 8.00022 1.25 8.00022 1.25C8.00022 1.25 8.00022 1.25 8.00022 1.25C8.00022 1.25 8.00022 1.25 8.00022 1.25C8.00022 1.25 8.00022 1.25 8.00022 1.25C8.00022 1.25 8.00022 1.25 8.00022 1.25C8.00022 1.25 8.00022 1.25 8.00022 1.25C8.00022 1.25 8.00022 1.25 8.00022 1.25C8.00022 1.25 8.00022 1.25 8.00022 1.25C8.00022 1.25 8.00022 1.25 8.00022 1.25C8.00022 1.25 8.00022 1.25 8.00022 1.25C8.00022 1.25 8.00022 1.25 8.00022 1.25C8.00022 1.25 8.00022 1.25 8.00022 1.25C8.00022 1.25 8.00022 1.25 8.00022 1.25C8.00022 1.25 8.00022 1.25 8.00022 1.25C8.00022 1.25 8.00022 1.25 8.00022 1.25C8.00022 1.25 8.00022 1.25 8.00022 1.25C8.00022 1.25 8.00022 1.25 8.00022 1.25C8.00022 1.25 8.00022 1.25 8.00022 1.25C8.00022 1.25 8.00022 1.25 8.00022 1.25C8.00022 1.25 8.00022 1.25 8.00022 1.25C8.00022 1.25 8.00022 1.25 8.00022 1.25C8.00023 1.25 8.00023 1.25 8.00023 1.25C8.00023 1.25 8.00023 1.25 8.00023 1.25C8.00023 1.25 8.00023 1.25 8.00023 1.25C8.00023 1.25 8.00023 1.25 8.00023 1.25C8.00023 1.25 8.00023 1.25 8.00023 1.25C8.00023 1.25 8.00023 1.25 8.00023 1.25C8.00023 1.25 8.00023 1.25 8.00023 1.25C8.00023 1.25 8.00023 1.25 8.00023 1.25C8.00023 1.25 8.00023 1.25 8.00023 1.25C8.00023 1.25 8.00023 1.25 8.00023 1.25C8.00023 1.25 8.00023 1.25 8.00023 1.25C8.00023 1.25 8.00023 1.25 8.00023 1.25C8.00023 1.25 8.00023 1.25 8.00023 1.25C8.00023 1.25 8.00023 1.25 8.00023 1.25C8.00023 1.25 8.00023 1.25 8.00023 1.25C8.00023 1.25 8.00023 1.25 8.00023 1.25C8.00023 1.25 8.00023 1.25 8.00023 1.25C8.00023 1.25 8.00023 1.25 8.00023 1.25C8.00023 1.25 8.00023 1.25 8.00023 1.25V-1.25C8.00023 -1.25 8.00023 -1.25 8.00023 -1.25C8.00023 -1.25 8.00023 -1.25 8.00023 -1.25C8.00023 -1.25 8.00023 -1.25 8.00023 -1.25C8.00023 -1.25 8.00023 -1.25 8.00023 -1.25C8.00023 -1.25 8.00023 -1.25 8.00023 -1.25C8.00023 -1.25 8.00023 -1.25 8.00023 -1.25C8.00023 -1.25 8.00023 -1.25 8.00023 -1.25C8.00023 -1.25 8.00023 -1.25 8.00023 -1.25C8.00023 -1.25 8.00023 -1.25 8.00023 -1.25C8.00023 -1.25 8.00023 -1.25 8.00023 -1.25C8.00023 -1.25 8.00023 -1.25 8.00023 -1.25C8.00023 -1.25 8.00023 -1.25 8.00023 -1.25C8.00023 -1.25 8.00023 -1.25 8.00023 -1.25C8.00023 -1.25 8.00023 -1.25 8.00023 -1.25C8.00023 -1.25 8.00023 -1.25 8.00023 -1.25C8.00023 -1.25 8.00023 -1.25 8.00023 -1.25C8.00023 -1.25 8.00023 -1.25 8.00023 -1.25C8.00023 -1.25 8.00023 -1.25 8.00023 -1.25C8.00023 -1.25 8.00023 -1.25 8.00022 -1.25C8.00022 -1.25 8.00022 -1.25 8.00022 -1.25C8.00022 -1.25 8.00022 -1.25 8.00022 -1.25C8.00022 -1.25 8.00022 -1.25 8.00022 -1.25C8.00022 -1.25 8.00022 -1.25 8.00022 -1.25C8.00022 -1.25 8.00022 -1.25 8.00022 -1.25C8.00022 -1.25 8.00022 -1.25 8.00022 -1.25C8.00022 -1.25 8.00022 -1.25 8.00022 -1.25C8.00022 -1.25 8.00022 -1.25 8.00022 -1.25C8.00022 -1.25 8.00022 -1.25 8.00022 -1.25C8.00022 -1.25 8.00022 -1.25 8.00022 -1.25C8.00022 -1.25 8.00022 -1.25 8.00022 -1.25C8.00022 -1.25 8.00022 -1.25 8.00022 -1.25C8.00022 -1.25 8.00022 -1.25 8.00022 -1.25C8.00022 -1.25 8.00022 -1.25 8.00022 -1.25C8.00022 -1.25 8.00022 -1.25 8.00022 -1.25C8.00022 -1.25 8.00022 -1.25 8.00022 -1.25C8.00022 -1.25 8.00022 -1.25 8.00022 -1.25C8.00022 -1.25 8.00022 -1.25 8.00022 -1.25C8.00022 -1.25 8.00022 -1.25 8.00022 -1.25C8.00022 -1.25 8.00022 -1.25 8.00022 -1.25C8.00022 -1.25 8.00022 -1.25 8.00022 -1.25C8.00022 -1.25 8.00022 -1.25 8.00021 -1.25C8.00021 -1.25 8.00021 -1.25 8.00021 -1.25C8.00021 -1.25 8.00021 -1.25 8.00021 -1.25C8.00021 -1.25 8.00021 -1.25 8.00021 -1.25C8.00021 -1.25 8.00021 -1.25 8.00021 -1.25C8.00021 -1.25 8.00021 -1.25 8.00021 -1.25C8.00021 -1.25 8.00021 -1.25 8.00021 -1.25C8.00021 -1.25 8.00021 -1.25 8.00021 -1.25C8.00021 -1.25 8.00021 -1.25 8.00021 -1.25C8.00021 -1.25 8.00021 -1.25 8.00021 -1.25C8.00021 -1.25 8.00021 -1.25 8.00021 -1.25C8.00021 -1.25 8.00021 -1.25 8.00021 -1.25C8.00021 -1.25 8.00021 -1.25 8.00021 -1.25C8.00021 -1.25 8.00021 -1.25 8.00021 -1.25C8.00021 -1.25 8.00021 -1.25 8.00021 -1.25C8.00021 -1.25 8.00021 -1.25 8.00021 -1.25C8.00021 -1.25 8.00021 -1.25 8.00021 -1.25C8.00021 -1.25 8.00021 -1.25 8.00021 -1.25C8.00021 -1.25 8.00021 -1.25 8.00021 -1.25C8.00021 -1.25 8.00021 -1.25 8.00021 -1.25C8.00021 -1.25 8.00021 -1.25 8.00021 -1.25C8.00021 -1.25 8.00021 -1.25 8.00021 -1.25C8.00021 -1.25 8.0002 -1.25 8.0002 -1.25C8.0002 -1.25 8.0002 -1.25 8.0002 -1.25C8.0002 -1.25 8.0002 -1.25 8.0002 -1.25C8.0002 -1.25 8.0002 -1.25 8.0002 -1.25C8.0002 -1.25 8.0002 -1.25 8.0002 -1.25C8.0002 -1.25 8.0002 -1.25 8.0002 -1.25C8.0002 -1.25 8.0002 -1.25 8.0002 -1.25C8.0002 -1.25 8.0002 -1.25 8.0002 -1.25C8.0002 -1.25 8.0002 -1.25 8.0002 -1.25C8.0002 -1.25 8.0002 -1.25 8.0002 -1.25C8.0002 -1.25 8.0002 -1.25 8.0002 -1.25C8.0002 -1.25 8.0002 -1.25 8.0002 -1.25C8.0002 -1.25 8.0002 -1.25 8.0002 -1.25C8.0002 -1.25 8.0002 -1.25 8.0002 -1.25C8.0002 -1.25 8.0002 -1.25 8.0002 -1.25C8.0002 -1.25 8.0002 -1.25 8.0002 -1.25C8.0002 -1.25 8.0002 -1.25 8.0002 -1.25C8.0002 -1.25 8.0002 -1.25 8.0002 -1.25C8.0002 -1.25 8.0002 -1.25 8.0002 -1.25C8.0002 -1.25 8.0002 -1.25 8.0002 -1.25C8.0002 -1.25 8.0002 -1.25 8.0002 -1.25C8.0002 -1.25 8.0002 -1.25 8.0002 -1.25C8.0002 -1.25 8.00019 -1.25 8.00019 -1.25C8.00019 -1.25 8.00019 -1.25 8.00019 -1.25C8.00019 -1.25 8.00019 -1.25 8.00019 -1.25C8.00019 -1.25 8.00019 -1.25 8.00019 -1.25C8.00019 -1.25 8.00019 -1.25 8.00019 -1.25C8.00019 -1.25 8.00019 -1.25 8.00019 -1.25C8.00019 -1.25 8.00019 -1.25 8.00019 -1.25C8.00019 -1.25 8.00019 -1.25 8.00019 -1.25C8.00019 -1.25 8.00019 -1.25 8.00019 -1.25C8.00019 -1.25 8.00019 -1.25 8.00019 -1.25C8.00019 -1.25 8.00019 -1.25 8.00019 -1.25C8.00019 -1.25 8.00019 -1.25 8.00019 -1.25C8.00019 -1.25 8.00019 -1.25 8.00019 -1.25C8.00019 -1.25 8.00019 -1.25 8.00019 -1.25C8.00019 -1.25 8.00019 -1.25 8.00019 -1.25C8.00019 -1.25 8.00019 -1.25 8.00019 -1.25C8.00019 -1.25 8.00019 -1.25 8.00019 -1.25C8.00019 -1.25 8.00019 -1.25 8.00019 -1.25C8.00019 -1.25 8.00019 -1.25 8.00019 -1.25C8.00019 -1.25 8.00019 -1.25 8.00019 -1.25C8.00019 -1.25 8.00019 -1.25 8.00019 -1.25C8.00019 -1.25 8.00019 -1.25 8.00019 -1.25C8.00019 -1.25 8.00018 -1.25 8.00018 -1.25C8.00018 -1.25 8.00018 -1.25 8.00018 -1.25C8.00018 -1.25 8.00018 -1.25 8.00018 -1.25C8.00018 -1.25 8.00018 -1.25 8.00018 -1.25C8.00018 -1.25 8.00018 -1.25 8.00018 -1.25C8.00018 -1.25 8.00018 -1.25 8.00018 -1.25C8.00018 -1.25 8.00018 -1.25 8.00018 -1.25C8.00018 -1.25 8.00018 -1.25 8.00018 -1.25C8.00018 -1.25 8.00018 -1.25 8.00018 -1.25C8.00018 -1.25 8.00018 -1.25 8.00018 -1.25C8.00018 -1.25 8.00018 -1.25 8.00018 -1.25C8.00018 -1.25 8.00018 -1.25 8.00018 -1.25C8.00018 -1.25 8.00018 -1.25 8.00018 -1.25C8.00018 -1.25 8.00018 -1.25 8.00018 -1.25C8.00018 -1.25 8.00018 -1.25 8.00018 -1.25C8.00018 -1.25 8.00018 -1.25 8.00018 -1.25C8.00018 -1.25 8.00018 -1.25 8.00018 -1.25C8.00018 -1.25 8.00018 -1.25 8.00018 -1.25C8.00018 -1.25 8.00018 -1.25 8.00018 -1.25C8.00018 -1.25 8.00018 -1.25 8.00018 -1.25C8.00018 -1.25 8.00018 -1.25 8.00018 -1.25C8.00018 -1.25 8.00018 -1.25 8.00018 -1.25C8.00017 -1.25 8.00017 -1.25 8.00017 -1.25C8.00017 -1.25 8.00017 -1.25 8.00017 -1.25C8.00017 -1.25 8.00017 -1.25 8.00017 -1.25C8.00017 -1.25 8.00017 -1.25 8.00017 -1.25C8.00017 -1.25 8.00017 -1.25 8.00017 -1.25C8.00017 -1.25 8.00017 -1.25 8.00017 -1.25C8.00017 -1.25 8.00017 -1.25 8.00017 -1.25C8.00017 -1.25 8.00017 -1.25 8.00017 -1.25C8.00017 -1.25 8.00017 -1.25 8.00017 -1.25C8.00017 -1.25 8.00017 -1.25 8.00017 -1.25C8.00017 -1.25 8.00017 -1.25 8.00017 -1.25C8.00017 -1.25 8.00017 -1.25 8.00017 -1.25C8.00017 -1.25 8.00017 -1.25 8.00017 -1.25C8.00017 -1.25 8.00017 -1.25 8.00017 -1.25C8.00017 -1.25 8.00017 -1.25 8.00017 -1.25C8.00017 -1.25 8.00017 -1.25 8.00017 -1.25C8.00017 -1.25 8.00017 -1.25 8.00017 -1.25C8.00017 -1.25 8.00017 -1.25 8.00017 -1.25C8.00017 -1.25 8.00017 -1.25 8.00017 -1.25C8.00017 -1.25 8.00017 -1.25 8.00017 -1.25C8.00017 -1.25 8.00017 -1.25 8.00017 -1.25C8.00017 -1.25 8.00017 -1.25 8.00017 -1.25C8.00016 -1.25 8.00016 -1.25 8.00016 -1.25C8.00016 -1.25 8.00016 -1.25 8.00016 -1.25C8.00016 -1.25 8.00016 -1.25 8.00016 -1.25C8.00016 -1.25 8.00016 -1.25 8.00016 -1.25C8.00016 -1.25 8.00016 -1.25 8.00016 -1.25C8.00016 -1.25 8.00016 -1.25 8.00016 -1.25C8.00016 -1.25 8.00016 -1.25 8.00016 -1.25C8.00016 -1.25 8.00016 -1.25 8.00016 -1.25C8.00016 -1.25 8.00016 -1.25 8.00016 -1.25C8.00016 -1.25 8.00016 -1.25 8.00016 -1.25C8.00016 -1.25 8.00016 -1.25 8.00016 -1.25C8.00016 -1.25 8.00016 -1.25 8.00016 -1.25C8.00016 -1.25 8.00016 -1.25 8.00016 -1.25C8.00016 -1.25 8.00016 -1.25 8.00016 -1.25C8.00016 -1.25 8.00016 -1.25 8.00016 -1.25C8.00016 -1.25 8.00016 -1.25 8.00016 -1.25C8.00016 -1.25 8.00016 -1.25 8.00016 -1.25C8.00016 -1.25 8.00016 -1.25 8.00016 -1.25C8.00016 -1.25 8.00016 -1.25 8.00016 -1.25C8.00016 -1.25 8.00016 -1.25 8.00016 -1.25C8.00016 -1.25 8.00016 -1.25 8.00016 -1.25C8.00016 -1.25 8.00016 -1.25 8.00016 -1.25C8.00015 -1.25 8.00015 -1.25 8.00015 -1.25C8.00015 -1.25 8.00015 -1.25 8.00015 -1.25C8.00015 -1.25 8.00015 -1.25 8.00015 -1.25C8.00015 -1.25 8.00015 -1.25 8.00015 -1.25C8.00015 -1.25 8.00015 -1.25 8.00015 -1.25C8.00015 -1.25 8.00015 -1.25 8.00015 -1.25C8.00015 -1.25 8.00015 -1.25 8.00015 -1.25C8.00015 -1.25 8.00015 -1.25 8.00015 -1.25C8.00015 -1.25 8.00015 -1.25 8.00015 -1.25C8.00015 -1.25 8.00015 -1.25 8.00015 -1.25C8.00015 -1.25 8.00015 -1.25 8.00015 -1.25C8.00015 -1.25 8.00015 -1.25 8.00015 -1.25C8.00015 -1.25 8.00015 -1.25 8.00015 -1.25C8.00015 -1.25 8.00015 -1.25 8.00015 -1.25C8.00015 -1.25 8.00015 -1.25 8.00015 -1.25C8.00015 -1.25 8.00015 -1.25 8.00015 -1.25C8.00015 -1.25 8.00015 -1.25 8.00015 -1.25C8.00015 -1.25 8.00015 -1.25 8.00015 -1.25C8.00015 -1.25 8.00015 -1.25 8.00015 -1.25C8.00015 -1.25 8.00015 -1.25 8.00015 -1.25C8.00015 -1.25 8.00015 -1.25 8.00015 -1.25C8.00015 -1.25 8.00015 -1.25 8.00015 -1.25C8.00014 -1.25 8.00014 -1.25 8.00014 -1.25C8.00014 -1.25 8.00014 -1.25 8.00014 -1.25C8.00014 -1.25 8.00014 -1.25 8.00014 -1.25C8.00014 -1.25 8.00014 -1.25 8.00014 -1.25C8.00014 -1.25 8.00014 -1.25 8.00014 -1.25C8.00014 -1.25 8.00014 -1.25 8.00014 -1.25C8.00014 -1.25 8.00014 -1.25 8.00014 -1.25C8.00014 -1.25 8.00014 -1.25 8.00014 -1.25C8.00014 -1.25 8.00014 -1.25 8.00014 -1.25C8.00014 -1.25 8.00014 -1.25 8.00014 -1.25C8.00014 -1.25 8.00014 -1.25 8.00014 -1.25C8.00014 -1.25 8.00014 -1.25 8.00014 -1.25C8.00014 -1.25 8.00014 -1.25 8.00014 -1.25C8.00014 -1.25 8.00014 -1.25 8.00014 -1.25C8.00014 -1.25 8.00014 -1.25 8.00014 -1.25C8.00014 -1.25 8.00014 -1.25 8.00014 -1.25C8.00014 -1.25 8.00014 -1.25 8.00014 -1.25C8.00014 -1.25 8.00014 -1.25 8.00014 -1.25C8.00014 -1.25 8.00014 -1.25 8.00014 -1.25C8.00014 -1.25 8.00014 -1.25 8.00014 -1.25C8.00014 -1.25 8.00014 -1.25 8.00014 -1.25C8.00014 -1.25 8.00014 -1.25 8.00014 -1.25C8.00013 -1.25 8.00013 -1.25 8.00013 -1.25C8.00013 -1.25 8.00013 -1.25 8.00013 -1.25C8.00013 -1.25 8.00013 -1.25 8.00013 -1.25C8.00013 -1.25 8.00013 -1.25 8.00013 -1.25C8.00013 -1.25 8.00013 -1.25 8.00013 -1.25C8.00013 -1.25 8.00013 -1.25 8.00013 -1.25C8.00013 -1.25 8.00013 -1.25 8.00013 -1.25C8.00013 -1.25 8.00013 -1.25 8.00013 -1.25C8.00013 -1.25 8.00013 -1.25 8.00013 -1.25C8.00013 -1.25 8.00013 -1.25 8.00013 -1.25C8.00013 -1.25 8.00013 -1.25 8.00013 -1.25C8.00013 -1.25 8.00013 -1.25 8.00013 -1.25C8.00013 -1.25 8.00013 -1.25 8.00013 -1.25C8.00013 -1.25 8.00013 -1.25 8.00013 -1.25C8.00013 -1.25 8.00013 -1.25 8.00013 -1.25C8.00013 -1.25 8.00013 -1.25 8.00013 -1.25C8.00013 -1.25 8.00013 -1.25 8.00013 -1.25C8.00013 -1.25 8.00013 -1.25 8.00013 -1.25C8.00013 -1.25 8.00013 -1.25 8.00013 -1.25C8.00013 -1.25 8.00013 -1.25 8.00013 -1.25C8.00013 -1.25 8.00013 -1.25 8.00013 -1.25C8.00013 -1.25 8.00013 -1.25 8.00013 -1.25C8.00012 -1.25 8.00012 -1.25 8.00012 -1.25C8.00012 -1.25 8.00012 -1.25 8.00012 -1.25C8.00012 -1.25 8.00012 -1.25 8.00012 -1.25C8.00012 -1.25 8.00012 -1.25 8.00012 -1.25C8.00012 -1.25 8.00012 -1.25 8.00012 -1.25C8.00012 -1.25 8.00012 -1.25 8.00012 -1.25C8.00012 -1.25 8.00012 -1.25 8.00012 -1.25C8.00012 -1.25 8.00012 -1.25 8.00012 -1.25C8.00012 -1.25 8.00012 -1.25 8.00012 -1.25C8.00012 -1.25 8.00012 -1.25 8.00012 -1.25C8.00012 -1.25 8.00012 -1.25 8.00012 -1.25C8.00012 -1.25 8.00012 -1.25 8.00012 -1.25C8.00012 -1.25 8.00012 -1.25 8.00012 -1.25C8.00012 -1.25 8.00012 -1.25 8.00012 -1.25C8.00012 -1.25 8.00012 -1.25 8.00012 -1.25C8.00012 -1.25 8.00012 -1.25 8.00012 -1.25C8.00012 -1.25 8.00012 -1.25 8.00012 -1.25C8.00012 -1.25 8.00012 -1.25 8.00012 -1.25C8.00012 -1.25 8.00012 -1.25 8.00012 -1.25C8.00012 -1.25 8.00012 -1.25 8.00012 -1.25C8.00012 -1.25 8.00012 -1.25 8.00012 -1.25C8.00012 -1.25 8.00012 -1.25 8.00012 -1.25C8.00011 -1.25 8.00011 -1.25 8.00011 -1.25C8.00011 -1.25 8.00011 -1.25 8.00011 -1.25C8.00011 -1.25 8.00011 -1.25 8.00011 -1.25C8.00011 -1.25 8.00011 -1.25 8.00011 -1.25C8.00011 -1.25 8.00011 -1.25 8.00011 -1.25C8.00011 -1.25 8.00011 -1.25 8.00011 -1.25C8.00011 -1.25 8.00011 -1.25 8.00011 -1.25C8.00011 -1.25 8.00011 -1.25 8.00011 -1.25C8.00011 -1.25 8.00011 -1.25 8.00011 -1.25C8.00011 -1.25 8.00011 -1.25 8.00011 -1.25C8.00011 -1.25 8.00011 -1.25 8.00011 -1.25C8.00011 -1.25 8.00011 -1.25 8.00011 -1.25C8.00011 -1.25 8.00011 -1.25 8.00011 -1.25C8.00011 -1.25 8.00011 -1.25 8.00011 -1.25C8.00011 -1.25 8.00011 -1.25 8.00011 -1.25C8.00011 -1.25 8.00011 -1.25 8.00011 -1.25C8.00011 -1.25 8.00011 -1.25 8.00011 -1.25C8.00011 -1.25 8.00011 -1.25 8.00011 -1.25C8.00011 -1.25 8.00011 -1.25 8.00011 -1.25C8.00011 -1.25 8.00011 -1.25 8.00011 -1.25C8.00011 -1.25 8.00011 -1.25 8.00011 -1.25C8.00011 -1.25 8.00011 -1.25 8.0001 -1.25C8.0001 -1.25 8.0001 -1.25 8.0001 -1.25C8.0001 -1.25 8.0001 -1.25 8.0001 -1.25C8.0001 -1.25 8.0001 -1.25 8.0001 -1.25C8.0001 -1.25 8.0001 -1.25 8.0001 -1.25C8.0001 -1.25 8.0001 -1.25 8.0001 -1.25C8.0001 -1.25 8.0001 -1.25 8.0001 -1.25C8.0001 -1.25 8.0001 -1.25 8.0001 -1.25C8.0001 -1.25 8.0001 -1.25 8.0001 -1.25C8.0001 -1.25 8.0001 -1.25 8.0001 -1.25C8.0001 -1.25 8.0001 -1.25 8.0001 -1.25C8.0001 -1.25 8.0001 -1.25 8.0001 -1.25C8.0001 -1.25 8.0001 -1.25 8.0001 -1.25C8.0001 -1.25 8.0001 -1.25 8.0001 -1.25C8.0001 -1.25 8.0001 -1.25 8.0001 -1.25C8.0001 -1.25 8.0001 -1.25 8.0001 -1.25C8.0001 -1.25 8.0001 -1.25 8.0001 -1.25C8.0001 -1.25 8.0001 -1.25 8.0001 -1.25C8.0001 -1.25 8.0001 -1.25 8.0001 -1.25C8.0001 -1.25 8.0001 -1.25 8.0001 -1.25C8.0001 -1.25 8.0001 -1.25 8.0001 -1.25C8.0001 -1.25 8.0001 -1.25 8.0001 -1.25C8.0001 -1.25 8.0001 -1.25 8.00009 -1.25C8.00009 -1.25 8.00009 -1.25 8.00009 -1.25C8.00009 -1.25 8.00009 -1.25 8.00009 -1.25C8.00009 -1.25 8.00009 -1.25 8.00009 -1.25C8.00009 -1.25 8.00009 -1.25 8.00009 -1.25C8.00009 -1.25 8.00009 -1.25 8.00009 -1.25C8.00009 -1.25 8.00009 -1.25 8.00009 -1.25C8.00009 -1.25 8.00009 -1.25 8.00009 -1.25C8.00009 -1.25 8.00009 -1.25 8.00009 -1.25C8.00009 -1.25 8.00009 -1.25 8.00009 -1.25C8.00009 -1.25 8.00009 -1.25 8.00009 -1.25C8.00009 -1.25 8.00009 -1.25 8.00009 -1.25C8.00009 -1.25 8.00009 -1.25 8.00009 -1.25C8.00009 -1.25 8.00009 -1.25 8.00009 -1.25C8.00009 -1.25 8.00009 -1.25 8.00009 -1.25C8.00009 -1.25 8.00009 -1.25 8.00009 -1.25C8.00009 -1.25 8.00009 -1.25 8.00009 -1.25C8.00009 -1.25 8.00009 -1.25 8.00009 -1.25C8.00009 -1.25 8.00009 -1.25 8.00009 -1.25C8.00009 -1.25 8.00009 -1.25 8.00009 -1.25C8.00009 -1.25 8.00009 -1.25 8.00009 -1.25C8.00009 -1.25 8.00009 -1.25 8.00009 -1.25C8.00009 -1.25 8.00009 -1.25 8.00008 -1.25C8.00008 -1.25 8.00008 -1.25 8.00008 -1.25C8.00008 -1.25 8.00008 -1.25 8.00008 -1.25C8.00008 -1.25 8.00008 -1.25 8.00008 -1.25C8.00008 -1.25 8.00008 -1.25 8.00008 -1.25C8.00008 -1.25 8.00008 -1.25 8.00008 -1.25C8.00008 -1.25 8.00008 -1.25 8.00008 -1.25C8.00008 -1.25 8.00008 -1.25 8.00008 -1.25C8.00008 -1.25 8.00008 -1.25 8.00008 -1.25C8.00008 -1.25 8.00008 -1.25 8.00008 -1.25C8.00008 -1.25 8.00008 -1.25 8.00008 -1.25C8.00008 -1.25 8.00008 -1.25 8.00008 -1.25C8.00008 -1.25 8.00008 -1.25 8.00008 -1.25C8.00008 -1.25 8.00008 -1.25 8.00008 -1.25C8.00008 -1.25 8.00008 -1.25 8.00008 -1.25C8.00008 -1.25 8.00008 -1.25 8.00008 -1.25C8.00008 -1.25 8.00008 -1.25 8.00008 -1.25C8.00008 -1.25 8.00008 -1.25 8.00008 -1.25C8.00008 -1.25 8.00008 -1.25 8.00008 -1.25C8.00008 -1.25 8.00008 -1.25 8.00008 -1.25C8.00008 -1.25 8.00008 -1.25 8.00008 -1.25C8.00008 -1.25 8.00008 -1.25 8.00008 -1.25C8.00008 -1.25 8.00008 -1.25 8.00007 -1.25C8.00007 -1.25 8.00007 -1.25 8.00007 -1.25C8.00007 -1.25 8.00007 -1.25 8.00007 -1.25C8.00007 -1.25 8.00007 -1.25 8.00007 -1.25C8.00007 -1.25 8.00007 -1.25 8.00007 -1.25C8.00007 -1.25 8.00007 -1.25 8.00007 -1.25C8.00007 -1.25 8.00007 -1.25 8.00007 -1.25C8.00007 -1.25 8.00007 -1.25 8.00007 -1.25C8.00007 -1.25 8.00007 -1.25 8.00007 -1.25C8.00007 -1.25 8.00007 -1.25 8.00007 -1.25C8.00007 -1.25 8.00007 -1.25 8.00007 -1.25C8.00007 -1.25 8.00007 -1.25 8.00007 -1.25C8.00007 -1.25 8.00007 -1.25 8.00007 -1.25C8.00007 -1.25 8.00007 -1.25 8.00007 -1.25C8.00007 -1.25 8.00007 -1.25 8.00007 -1.25C8.00007 -1.25 8.00007 -1.25 8.00007 -1.25C8.00007 -1.25 8.00007 -1.25 8.00007 -1.25C8.00007 -1.25 8.00007 -1.25 8.00007 -1.25C8.00007 -1.25 8.00007 -1.25 8.00007 -1.25C8.00007 -1.25 8.00007 -1.25 8.00007 -1.25C8.00007 -1.25 8.00007 -1.25 8.00007 -1.25C8.00007 -1.25 8.00007 -1.25 8.00007 -1.25C8.00007 -1.25 8.00007 -1.25 8.00006 -1.25C8.00006 -1.25 8.00006 -1.25 8.00006 -1.25C8.00006 -1.25 8.00006 -1.25 8.00006 -1.25C8.00006 -1.25 8.00006 -1.25 8.00006 -1.25C8.00006 -1.25 8.00006 -1.25 8.00006 -1.25C8.00006 -1.25 8.00006 -1.25 8.00006 -1.25C8.00006 -1.25 8.00006 -1.25 8.00006 -1.25C8.00006 -1.25 8.00006 -1.25 8.00006 -1.25C8.00006 -1.25 8.00006 -1.25 8.00006 -1.25C8.00006 -1.25 8.00006 -1.25 8.00006 -1.25C8.00006 -1.25 8.00006 -1.25 8.00006 -1.25C8.00006 -1.25 8.00006 -1.25 8.00006 -1.25C8.00006 -1.25 8.00006 -1.25 8.00006 -1.25C8.00006 -1.25 8.00006 -1.25 8.00006 -1.25C8.00006 -1.25 8.00006 -1.25 8.00006 -1.25C8.00006 -1.25 8.00006 -1.25 8.00006 -1.25C8.00006 -1.25 8.00006 -1.25 8.00006 -1.25C8.00006 -1.25 8.00006 -1.25 8.00006 -1.25C8.00006 -1.25 8.00006 -1.25 8.00006 -1.25C8.00006 -1.25 8.00006 -1.25 8.00006 -1.25C8.00006 -1.25 8.00006 -1.25 8.00006 -1.25C8.00006 -1.25 8.00006 -1.25 8.00006 -1.25C8.00006 -1.25 8.00006 -1.25 8.00005 -1.25C8.00005 -1.25 8.00005 -1.25 8.00005 -1.25C8.00005 -1.25 8.00005 -1.25 8.00005 -1.25C8.00005 -1.25 8.00005 -1.25 8.00005 -1.25C8.00005 -1.25 8.00005 -1.25 8.00005 -1.25C8.00005 -1.25 8.00005 -1.25 8.00005 -1.25C8.00005 -1.25 8.00005 -1.25 8.00005 -1.25C8.00005 -1.25 8.00005 -1.25 8.00005 -1.25C8.00005 -1.25 8.00005 -1.25 8.00005 -1.25C8.00005 -1.25 8.00005 -1.25 8.00005 -1.25C8.00005 -1.25 8.00005 -1.25 8.00005 -1.25C8.00005 -1.25 8.00005 -1.25 8.00005 -1.25C8.00005 -1.25 8.00005 -1.25 8.00005 -1.25C8.00005 -1.25 8.00005 -1.25 8.00005 -1.25C8.00005 -1.25 8.00005 -1.25 8.00005 -1.25C8.00005 -1.25 8.00005 -1.25 8.00005 -1.25C8.00005 -1.25 8.00005 -1.25 8.00005 -1.25C8.00005 -1.25 8.00005 -1.25 8.00005 -1.25C8.00005 -1.25 8.00005 -1.25 8.00005 -1.25C8.00005 -1.25 8.00005 -1.25 8.00005 -1.25C8.00005 -1.25 8.00005 -1.25 8.00005 -1.25C8.00005 -1.25 8.00005 -1.25 8.00005 -1.25C8.00005 -1.25 8.00004 -1.25 8.00004 -1.25C8.00004 -1.25 8.00004 -1.25 8.00004 -1.25C8.00004 -1.25 8.00004 -1.25 8.00004 -1.25C8.00004 -1.25 8.00004 -1.25 8.00004 -1.25C8.00004 -1.25 8.00004 -1.25 8.00004 -1.25C8.00004 -1.25 8.00004 -1.25 8.00004 -1.25C8.00004 -1.25 8.00004 -1.25 8.00004 -1.25C8.00004 -1.25 8.00004 -1.25 8.00004 -1.25C8.00004 -1.25 8.00004 -1.25 8.00004 -1.25C8.00004 -1.25 8.00004 -1.25 8.00004 -1.25C8.00004 -1.25 8.00004 -1.25 8.00004 -1.25C8.00004 -1.25 8.00004 -1.25 8.00004 -1.25C8.00004 -1.25 8.00004 -1.25 8.00004 -1.25C8.00004 -1.25 8.00004 -1.25 8.00004 -1.25C8.00004 -1.25 8.00004 -1.25 8.00004 -1.25C8.00004 -1.25 8.00004 -1.25 8.00004 -1.25C8.00004 -1.25 8.00004 -1.25 8.00004 -1.25C8.00004 -1.25 8.00004 -1.25 8.00004 -1.25C8.00004 -1.25 8.00004 -1.25 8.00004 -1.25C8.00004 -1.25 8.00004 -1.25 8.00004 -1.25C8.00004 -1.25 8.00004 -1.25 8.00004 -1.25C8.00004 -1.25 8.00004 -1.25 8.00004 -1.25C8.00004 -1.25 8.00003 -1.25 8.00003 -1.25C8.00003 -1.25 8.00003 -1.25 8.00003 -1.25C8.00003 -1.25 8.00003 -1.25 8.00003 -1.25C8.00003 -1.25 8.00003 -1.25 8.00003 -1.25C8.00003 -1.25 8.00003 -1.25 8.00003 -1.25C8.00003 -1.25 8.00003 -1.25 8.00003 -1.25C8.00003 -1.25 8.00003 -1.25 8.00003 -1.25C8.00003 -1.25 8.00003 -1.25 8.00003 -1.25C8.00003 -1.25 8.00003 -1.25 8.00003 -1.25C8.00003 -1.25 8.00003 -1.25 8.00003 -1.25C8.00003 -1.25 8.00003 -1.25 8.00003 -1.25C8.00003 -1.25 8.00003 -1.25 8.00003 -1.25C8.00003 -1.25 8.00003 -1.25 8.00003 -1.25C8.00003 -1.25 8.00003 -1.25 8.00003 -1.25C8.00003 -1.25 8.00003 -1.25 8.00003 -1.25C8.00003 -1.25 8.00003 -1.25 8.00003 -1.25C8.00003 -1.25 8.00003 -1.25 8.00003 -1.25C8.00003 -1.25 8.00003 -1.25 8.00003 -1.25C8.00003 -1.25 8.00003 -1.25 8.00003 -1.25C8.00003 -1.25 8.00003 -1.25 8.00003 -1.25C8.00003 -1.25 8.00003 -1.25 8.00003 -1.25C8.00003 -1.25 8.00003 -1.25 8.00003 -1.25C8.00003 -1.25 8.00002 -1.25 8.00002 -1.25C8.00002 -1.25 8.00002 -1.25 8.00002 -1.25C8.00002 -1.25 8.00002 -1.25 8.00002 -1.25C8.00002 -1.25 8.00002 -1.25 8.00002 -1.25C8.00002 -1.25 8.00002 -1.25 8.00002 -1.25C8.00002 -1.25 8.00002 -1.25 8.00002 -1.25C8.00002 -1.25 8.00002 -1.25 8.00002 -1.25C8.00002 -1.25 8.00002 -1.25 8.00002 -1.25C8.00002 -1.25 8.00002 -1.25 8.00002 -1.25C8.00002 -1.25 8.00002 -1.25 8.00002 -1.25C8.00002 -1.25 8.00002 -1.25 8.00002 -1.25C8.00002 -1.25 8.00002 -1.25 8.00002 -1.25C8.00002 -1.25 8.00002 -1.25 8.00002 -1.25C8.00002 -1.25 8.00002 -1.25 8.00002 -1.25C8.00002 -1.25 8.00002 -1.25 8.00002 -1.25C8.00002 -1.25 8.00002 -1.25 8.00002 -1.25C8.00002 -1.25 8.00002 -1.25 8.00002 -1.25C8.00002 -1.25 8.00002 -1.25 8.00002 -1.25C8.00002 -1.25 8.00002 -1.25 8.00002 -1.25C8.00002 -1.25 8.00002 -1.25 8.00002 -1.25C8.00002 -1.25 8.00002 -1.25 8.00002 -1.25C8.00002 -1.25 8.00002 -1.25 8.00002 -1.25C8.00001 -1.25 8.00001 -1.25 8.00001 -1.25C8.00001 -1.25 8.00001 -1.25 8.00001 -1.25C8.00001 -1.25 8.00001 -1.25 8.00001 -1.25C8.00001 -1.25 8.00001 -1.25 8.00001 -1.25C8.00001 -1.25 8.00001 -1.25 8.00001 -1.25C8.00001 -1.25 8.00001 -1.25 8.00001 -1.25C8.00001 -1.25 8.00001 -1.25 8.00001 -1.25C8.00001 -1.25 8.00001 -1.25 8.00001 -1.25C8.00001 -1.25 8.00001 -1.25 8.00001 -1.25C8.00001 -1.25 8.00001 -1.25 8.00001 -1.25C8.00001 -1.25 8.00001 -1.25 8.00001 -1.25C8.00001 -1.25 8.00001 -1.25 8.00001 -1.25C8.00001 -1.25 8.00001 -1.25 8.00001 -1.25C8.00001 -1.25 8.00001 -1.25 8.00001 -1.25C8.00001 -1.25 8.00001 -1.25 8.00001 -1.25C8.00001 -1.25 8.00001 -1.25 8.00001 -1.25C8.00001 -1.25 8.00001 -1.25 8.00001 -1.25C8.00001 -1.25 8.00001 -1.25 8.00001 -1.25C8.00001 -1.25 8.00001 -1.25 8.00001 -1.25C8.00001 -1.25 8.00001 -1.25 8.00001 -1.25C8.00001 -1.25 8.00001 -1.25 8.00001 -1.25C8.00001 -1.25 8.00001 -1.25 8.00001 -1.25C8 -1.25 8 -1.25 8 -1.25C8 -1.25 8 -1.25 8 -1.25C8 -1.25 8 -1.25 8 -1.25C8 -1.25 8 -1.25 8 -1.25C8 -1.25 8 -1.25 8 -1.25C8 -1.25 8 -1.25 8 -1.25C8 -1.25 8 -1.25 8 -1.25C8 -1.25 8 -1.25 8 -1.25C8 -1.25 8 -1.25 8 -1.25C8 -1.25 8 -1.25 8 -1.25C8 -1.25 8 -1.25 8 -1.25V1.25ZM1.25 8C1.25 4.27208 4.27208 1.25 8 1.25V-1.25C2.89137 -1.25 -1.25 2.89137 -1.25 8H1.25ZM8 14.75C4.27208 14.75 1.25 11.7279 1.25 8H-1.25C-1.25 13.1086 2.89137 17.25 8 17.25V14.75Z" fill="black" mask="url(#path-2-inside-1_961_67)"/>
<mask id="path-4-inside-2_961_67" fill="white">
<path fill-rule="evenodd" clip-rule="evenodd" d="M0.0839844 9.16413C0.290134 9.07412 0.50079 8.99255 0.715515 8.91985C1.69178 9.91029 3.04568 10.5286 4.54622 10.5401C5.67653 10.5488 6.72893 10.212 7.60318 9.62835C8.79513 8.94088 10.1803 8.55209 11.6557 8.56343C13.1789 8.57514 14.5995 9.0118 15.8057 9.76007C15.0038 13.3316 11.8135 16 7.99989 16C3.97702 16 0.64767 13.0307 0.0839844 9.16413Z"/>
</mask>
<path fill-rule="evenodd" clip-rule="evenodd" d="M0.0839844 9.16413C0.290134 9.07412 0.50079 8.99255 0.715515 8.91985C1.69178 9.91029 3.04568 10.5286 4.54622 10.5401C5.67653 10.5488 6.72893 10.212 7.60318 9.62835C8.79513 8.94088 10.1803 8.55209 11.6557 8.56343C13.1789 8.57514 14.5995 9.0118 15.8057 9.76007C15.0038 13.3316 11.8135 16 7.99989 16C3.97702 16 0.64767 13.0307 0.0839844 9.16413Z" fill="#3D8FB3"/>
<path d="M0.715515 8.91985L1.60575 8.04236L1.05618 7.48482L0.314664 7.73586L0.715515 8.91985ZM0.0839844 9.16413L-0.416218 8.01858L-1.29058 8.40036L-1.15294 9.34446L0.0839844 9.16413ZM4.54622 10.5401L4.55582 9.29013L4.55582 9.29013L4.54622 10.5401ZM7.60318 9.62835L6.97865 8.54554L6.9432 8.56599L6.90916 8.58871L7.60318 9.62835ZM11.6557 8.56343L11.6461 9.81339L11.6557 8.56343ZM15.8057 9.76007L17.0253 10.0339L17.22 9.1665L16.4646 8.69786L15.8057 9.76007ZM0.314664 7.73586C0.066123 7.82001 -0.177676 7.91442 -0.416218 8.01858L0.584187 10.3097C0.757943 10.2338 0.935458 10.1651 1.11637 10.1038L0.314664 7.73586ZM4.55582 9.29013C3.39989 9.28125 2.35893 8.80648 1.60575 8.04236L-0.174716 9.79734C1.02462 11.0141 2.69147 11.7759 4.53661 11.7901L4.55582 9.29013ZM6.90916 8.58871C6.23653 9.03773 5.42803 9.29683 4.55582 9.29013L4.53661 11.7901C5.92503 11.8007 7.22134 11.3862 8.29719 10.668L6.90916 8.58871ZM11.6653 7.31346C9.96144 7.30037 8.35808 7.74994 6.97865 8.54554L8.2277 10.7112C9.23218 10.1318 10.3992 9.80381 11.6461 9.81339L11.6653 7.31346ZM16.4646 8.69786C15.0689 7.83201 13.4246 7.32699 11.6653 7.31346L11.6461 9.81339C12.9333 9.82328 14.1301 10.1916 15.1467 10.8223L16.4646 8.69786ZM14.586 9.48625C13.9095 12.4995 11.216 14.75 7.99989 14.75V17.25C12.4109 17.25 16.0981 14.1637 17.0253 10.0339L14.586 9.48625ZM7.99989 14.75C4.60669 14.75 1.79635 12.245 1.32091 8.98381L-1.15294 9.34446C-0.501011 13.8163 3.34735 17.25 7.99989 17.25V14.75Z" fill="black" mask="url(#path-4-inside-2_961_67)"/>
</svg>
