<svg width="1063" height="300" viewBox="0 0 1063 300" fill="none" xmlns="http://www.w3.org/2000/svg">
<path d="M7.932 103.8H63.496V117.256H24.172V138.716H60.016V152.172H24.172V185H7.932V103.8ZM100.031 186.392C95.7781 186.392 91.9115 185.812 88.4315 184.652C84.9515 183.415 81.9741 181.636 79.4995 179.316C77.1021 176.996 75.2461 174.173 73.9315 170.848C72.6168 167.523 71.9595 163.733 71.9595 159.48V151.244C71.9595 147.145 72.5395 143.395 73.6995 139.992C74.9368 136.589 76.7155 133.651 79.0355 131.176C81.4328 128.701 84.3328 126.768 87.7355 125.376C91.2155 123.984 95.2368 123.288 99.7995 123.288C104.285 123.288 108.19 123.984 111.515 125.376C114.918 126.768 117.741 128.663 119.983 131.06C122.226 133.457 123.889 136.28 124.971 139.528C126.131 142.699 126.711 146.101 126.711 149.736V160.292H87.2715V161.8C87.2715 163.579 87.5035 165.28 87.9675 166.904C88.4315 168.451 89.1661 169.843 90.1715 171.08C91.2541 172.317 92.5688 173.284 94.1155 173.98C95.7395 174.676 97.7115 175.024 100.031 175.024C103.434 175.024 106.141 174.289 108.151 172.82C110.239 171.273 111.67 169.456 112.443 167.368H126.247C125.706 170.152 124.662 172.704 123.115 175.024C121.569 177.344 119.635 179.355 117.315 181.056C114.995 182.68 112.366 183.995 109.427 185C106.489 185.928 103.357 186.392 100.031 186.392ZM87.2715 149.156H112.211V147.648C112.211 143.859 111.206 140.727 109.195 138.252C107.185 135.7 104.053 134.424 99.7995 134.424C97.5568 134.424 95.6235 134.772 93.9995 135.468C92.4528 136.164 91.1768 137.169 90.1715 138.484C89.1661 139.721 88.4315 141.229 87.9675 143.008C87.5035 144.709 87.2715 146.565 87.2715 148.576V149.156ZM139.886 100.32H155.662V185H139.886V100.32ZM171.944 124.68H187.72V185H171.944V124.68ZM173.22 115.516C171.519 113.737 170.668 111.533 170.668 108.904C170.668 106.275 171.519 104.109 173.22 102.408C174.922 100.629 177.126 99.74 179.832 99.74C182.539 99.74 184.743 100.629 186.444 102.408C188.146 104.109 188.996 106.275 188.996 108.904C188.996 111.533 188.146 113.737 186.444 115.516C184.743 117.217 182.539 118.068 179.832 118.068C177.126 118.068 174.922 117.217 173.22 115.516ZM236.599 123.288C240.775 123.288 244.409 124.023 247.503 125.492C250.673 126.884 253.341 128.817 255.507 131.292C257.672 133.689 259.296 136.512 260.379 139.76C261.461 142.931 262.003 146.295 262.003 149.852V159.828C262.003 163.463 261.423 166.904 260.263 170.152C259.18 173.323 257.556 176.145 255.391 178.62C253.303 181.017 250.673 182.912 247.503 184.304C244.332 185.696 240.736 186.392 236.715 186.392C232.693 186.392 229.175 185.657 226.159 184.188C223.22 182.719 220.977 180.824 219.431 178.504V205.184H203.655V124.68H218.735V131.872C220.281 129.552 222.524 127.541 225.463 125.84C228.479 124.139 232.191 123.288 236.599 123.288ZM232.771 136.048C228.749 136.048 225.501 137.401 223.027 140.108C220.629 142.815 219.431 146.295 219.431 150.548V159.364C219.431 161.684 219.779 163.733 220.475 165.512C221.171 167.213 222.099 168.683 223.259 169.92C224.496 171.157 225.927 172.085 227.551 172.704C229.175 173.323 230.876 173.632 232.655 173.632C237.14 173.632 240.504 172.279 242.747 169.572C245.067 166.865 246.227 163.385 246.227 159.132V150.548C246.227 146.527 245.105 143.124 242.863 140.34C240.697 137.479 237.333 136.048 232.771 136.048ZM300.313 186.392C296.059 186.392 292.193 185.812 288.713 184.652C285.233 183.415 282.255 181.636 279.781 179.316C277.383 176.996 275.527 174.173 274.213 170.848C272.898 167.523 272.241 163.733 272.241 159.48V151.244C272.241 147.145 272.821 143.395 273.981 139.992C275.218 136.589 276.997 133.651 279.317 131.176C281.714 128.701 284.614 126.768 288.017 125.376C291.497 123.984 295.518 123.288 300.081 123.288C304.566 123.288 308.471 123.984 311.797 125.376C315.199 126.768 318.022 128.663 320.265 131.06C322.507 133.457 324.17 136.28 325.253 139.528C326.413 142.699 326.993 146.101 326.993 149.736V160.292H287.553V161.8C287.553 163.579 287.785 165.28 288.249 166.904C288.713 168.451 289.447 169.843 290.453 171.08C291.535 172.317 292.85 173.284 294.397 173.98C296.021 174.676 297.993 175.024 300.313 175.024C303.715 175.024 306.422 174.289 308.433 172.82C310.521 171.273 311.951 169.456 312.725 167.368H326.529C325.987 170.152 324.943 172.704 323.397 175.024C321.85 177.344 319.917 179.355 317.597 181.056C315.277 182.68 312.647 183.995 309.709 185C306.77 185.928 303.638 186.392 300.313 186.392ZM287.553 149.156H312.493V147.648C312.493 143.859 311.487 140.727 309.477 138.252C307.466 135.7 304.334 134.424 300.081 134.424C297.838 134.424 295.905 134.772 294.281 135.468C292.734 136.164 291.458 137.169 290.453 138.484C289.447 139.721 288.713 141.229 288.249 143.008C287.785 144.709 287.553 146.565 287.553 148.576V149.156ZM390.363 186.624C385.955 186.624 381.972 186.044 378.415 184.884C374.858 183.647 371.842 181.945 369.367 179.78C366.892 177.537 364.998 174.869 363.683 171.776C362.368 168.605 361.711 165.087 361.711 161.22V160.06H377.139V161.104C377.139 164.816 378.26 167.755 380.503 169.92C382.823 172.085 386.11 173.168 390.363 173.168C394.694 173.168 397.903 172.085 399.991 169.92C402.156 167.677 403.239 164.739 403.239 161.104V103.8H419.479V161.104C419.479 164.893 418.744 168.373 417.275 171.544C415.883 174.637 413.911 177.305 411.359 179.548C408.807 181.791 405.752 183.531 402.195 184.768C398.638 186.005 394.694 186.624 390.363 186.624ZM461.633 186.392C457.071 186.392 453.011 185.696 449.453 184.304C445.973 182.912 443.035 181.017 440.637 178.62C438.24 176.145 436.384 173.245 435.069 169.92C433.832 166.595 433.213 162.999 433.213 159.132V150.548C433.213 146.681 433.832 143.085 435.069 139.76C436.384 136.435 438.24 133.573 440.637 131.176C443.035 128.701 445.973 126.768 449.453 125.376C453.011 123.984 457.071 123.288 461.633 123.288C466.119 123.288 470.14 123.984 473.697 125.376C477.255 126.768 480.232 128.701 482.629 131.176C485.027 133.573 486.844 136.435 488.081 139.76C489.396 143.085 490.053 146.681 490.053 150.548V159.132C490.053 162.999 489.396 166.595 488.081 169.92C486.844 173.245 485.027 176.145 482.629 178.62C480.232 181.017 477.255 182.912 473.697 184.304C470.14 185.696 466.119 186.392 461.633 186.392ZM474.741 149.504C474.741 145.56 473.659 142.273 471.493 139.644C469.405 137.015 466.119 135.7 461.633 135.7C457.148 135.7 453.823 137.015 451.657 139.644C449.569 142.273 448.525 145.56 448.525 149.504V160.176C448.525 164.12 449.569 167.407 451.657 170.036C453.823 172.665 457.148 173.98 461.633 173.98C466.119 173.98 469.405 172.665 471.493 170.036C473.659 167.407 474.741 164.12 474.741 160.176V149.504ZM529.276 206.576C525.719 206.576 522.355 206.151 519.184 205.3C516.013 204.527 513.191 203.367 510.716 201.82C508.241 200.273 506.153 198.379 504.452 196.136C502.751 193.971 501.591 191.457 500.972 188.596H516.284C517.367 190.684 519.029 192.192 521.272 193.12C523.515 194.125 526.183 194.628 529.276 194.628C533.297 194.628 536.468 193.623 538.788 191.612C541.185 189.601 542.384 186.895 542.384 183.492V173.98C541.069 176.068 538.827 177.963 535.656 179.664C532.563 181.365 529.044 182.216 525.1 182.216C521.001 182.216 517.405 181.559 514.312 180.244C511.219 178.852 508.628 176.996 506.54 174.676C504.452 172.356 502.867 169.688 501.784 166.672C500.779 163.656 500.276 160.485 500.276 157.16V148.344C500.276 145.019 500.779 141.848 501.784 138.832C502.867 135.739 504.452 133.071 506.54 130.828C508.628 128.508 511.219 126.691 514.312 125.376C517.483 123.984 521.117 123.288 525.216 123.288C527.536 123.288 529.663 123.559 531.596 124.1C533.607 124.641 535.347 125.337 536.816 126.188C538.363 126.961 539.639 127.889 540.644 128.972C541.727 129.977 542.539 130.983 543.08 131.988V124.68H558.16V183.724C558.16 186.972 557.425 189.988 555.956 192.772C554.564 195.556 552.592 197.953 550.04 199.964C547.488 202.052 544.433 203.676 540.876 204.836C537.319 205.996 533.452 206.576 529.276 206.576ZM528.812 169.572C532.524 169.572 535.695 168.451 538.324 166.208C541.031 163.888 542.384 160.601 542.384 156.348V149.388C542.384 145.289 541.147 142.041 538.672 139.644C536.197 137.169 533.065 135.932 529.276 135.932C524.868 135.932 521.543 137.131 519.3 139.528C517.057 141.925 515.936 145.212 515.936 149.388V156.348C515.936 160.215 516.98 163.385 519.068 165.86C521.233 168.335 524.481 169.572 528.812 169.572ZM574.093 100.32H589.869V185H574.093V100.32ZM626.103 186.392C622.701 186.392 619.607 185.967 616.823 185.116C614.039 184.265 611.642 183.028 609.631 181.404C607.621 179.78 606.035 177.808 604.875 175.488C603.793 173.168 603.251 170.539 603.251 167.6C603.251 164.352 603.831 161.529 604.991 159.132C606.151 156.657 607.814 154.647 609.979 153.1C612.145 151.553 614.697 150.393 617.635 149.62C620.651 148.847 623.977 148.46 627.611 148.46C631.246 148.46 634.339 149.04 636.891 150.2C639.521 151.283 641.531 152.404 642.923 153.564V145.328C642.923 142.544 641.995 140.224 640.139 138.368C638.283 136.512 635.731 135.584 632.483 135.584C629.777 135.584 627.573 136.125 625.871 137.208C624.17 138.291 622.894 139.644 622.043 141.268H607.427C609.206 135.391 612.299 130.944 616.707 127.928C621.193 124.835 626.722 123.288 633.295 123.288C637.085 123.288 640.526 123.829 643.619 124.912C646.713 125.995 649.381 127.58 651.623 129.668C653.866 131.679 655.606 134.115 656.843 136.976C658.081 139.837 658.699 143.008 658.699 146.488V185H643.503V179.432C642.807 180.437 641.841 181.365 640.603 182.216C639.366 183.067 637.935 183.801 636.311 184.42C634.765 185.039 633.102 185.503 631.323 185.812C629.545 186.199 627.805 186.392 626.103 186.392ZM630.163 175.952C631.865 175.952 633.489 175.72 635.035 175.256C636.582 174.792 637.935 174.173 639.095 173.4C640.255 172.627 641.183 171.699 641.879 170.616C642.575 169.533 642.923 168.335 642.923 167.02C642.923 164.313 641.763 162.225 639.443 160.756C637.123 159.287 634.185 158.552 630.627 158.552C626.915 158.552 623.977 159.287 621.811 160.756C619.646 162.225 618.563 164.352 618.563 167.136C618.563 169.92 619.646 172.085 621.811 173.632C624.054 175.179 626.838 175.952 630.163 175.952ZM673.659 124.68H688.623V136.396C689.628 131.833 691.755 128.663 695.003 126.884C698.251 125.105 702.156 124.216 706.719 124.216H708.575V139.876H705.327C700.145 139.876 696.201 141.229 693.495 143.936C690.788 146.643 689.435 151.051 689.435 157.16V185H673.659V124.68Z" fill="black"/>
<circle cx="913" cy="150" r="138.281" fill="#F7F9FB" stroke="black" stroke-width="23.4375"/>
<mask id="path-3-inside-1_967_11" fill="white">
<path fill-rule="evenodd" clip-rule="evenodd" d="M913 300C995.843 300 1063 232.843 1063 150C1063 144.822 1062.74 139.706 1062.23 134.663C1062.51 137.485 1062.72 140.33 1062.85 143.195L995.661 89.5856L976.886 107.802L940.45 70.2466C890.881 111.058 829.906 138.516 763.027 147.119C763.009 148.077 763 149.037 763 150C763 232.843 830.157 300 913 300Z"/>
</mask>
<path fill-rule="evenodd" clip-rule="evenodd" d="M913 300C995.843 300 1063 232.843 1063 150C1063 144.822 1062.74 139.706 1062.23 134.663C1062.51 137.485 1062.72 140.33 1062.85 143.195L995.661 89.5856L976.886 107.802L940.45 70.2466C890.881 111.058 829.906 138.516 763.027 147.119C763.009 148.077 763 149.037 763 150C763 232.843 830.157 300 913 300Z" fill="#3EB489"/>
<path d="M1062.23 134.663L1085.54 132.295L1038.91 137.031L1062.23 134.663ZM1062.85 143.195L1048.23 161.515L1088.56 193.698L1086.26 142.15L1062.85 143.195ZM995.661 89.5856L1010.28 71.2654L994.15 58.3959L979.341 72.7642L995.661 89.5856ZM976.886 107.802L960.065 124.122L976.385 140.944L993.206 124.623L976.886 107.802ZM940.45 70.2466L957.271 53.9262L942.229 38.4223L925.552 52.1527L940.45 70.2466ZM763.027 147.119L760.037 123.873L739.975 126.453L739.594 146.677L763.027 147.119ZM1039.56 150C1039.56 219.899 982.899 276.562 913 276.562V323.438C1008.79 323.438 1086.44 245.787 1086.44 150H1039.56ZM1038.91 137.031C1039.34 141.289 1039.56 145.615 1039.56 150H1086.44C1086.44 144.03 1086.13 138.123 1085.54 132.295L1038.91 137.031ZM1086.26 142.15C1086.11 138.842 1085.87 135.556 1085.54 132.295L1038.91 137.032C1039.15 139.414 1039.33 141.817 1039.43 144.241L1086.26 142.15ZM981.043 107.906L1048.23 161.515L1077.47 124.875L1010.28 71.2654L981.043 107.906ZM993.206 124.623L1011.98 106.407L979.341 72.7642L960.566 90.9802L993.206 124.623ZM923.628 86.5669L960.065 124.122L993.707 91.4813L957.271 53.9262L923.628 86.5669ZM766.017 170.365C837.404 161.182 902.478 131.869 955.347 88.3404L925.552 52.1527C879.284 90.2469 822.408 115.85 760.037 123.873L766.017 170.365ZM786.438 150C786.438 149.185 786.445 148.371 786.46 147.56L739.594 146.677C739.573 147.783 739.562 148.89 739.562 150H786.438ZM913 276.562C843.101 276.562 786.438 219.899 786.438 150H739.562C739.562 245.787 817.213 323.438 913 323.438V276.562Z" fill="black" mask="url(#path-3-inside-1_967_11)"/>
<mask id="path-5-inside-2_967_11" fill="white">
<path fill-rule="evenodd" clip-rule="evenodd" d="M764.576 171.822C768.439 170.136 772.386 168.608 776.41 167.246C794.715 185.817 820.101 197.411 848.237 197.627C869.448 197.79 889.196 191.464 905.596 180.504C927.934 167.631 953.889 160.352 981.534 160.564C1010.1 160.784 1036.74 168.974 1059.36 183.008C1044.32 249.971 984.502 300 913 300C837.569 300 775.143 244.322 764.576 171.822Z"/>
</mask>
<path fill-rule="evenodd" clip-rule="evenodd" d="M764.576 171.822C768.439 170.136 772.386 168.608 776.41 167.246C794.715 185.817 820.101 197.411 848.237 197.627C869.448 197.79 889.196 191.464 905.596 180.504C927.934 167.631 953.889 160.352 981.534 160.564C1010.1 160.784 1036.74 168.974 1059.36 183.008C1044.32 249.971 984.502 300 913 300C837.569 300 775.143 244.322 764.576 171.822Z" fill="#3D8FB3"/>
<path d="M776.41 167.246L793.102 150.793L782.798 140.339L768.894 145.046L776.41 167.246ZM764.576 171.822L755.199 150.342L738.803 157.5L741.383 175.203L764.576 171.822ZM848.237 197.627L848.057 221.064L848.237 197.627ZM905.596 180.504L893.893 160.198L893.22 160.586L892.573 161.017L905.596 180.504ZM981.534 160.564L981.353 184.001L981.534 160.564ZM1059.36 183.008L1082.22 188.144L1085.88 171.881L1071.71 163.093L1059.36 183.008ZM768.894 145.046C764.237 146.622 759.669 148.391 755.199 150.342L773.953 193.302C777.209 191.881 780.535 190.593 783.925 189.446L768.894 145.046ZM848.417 174.19C826.743 174.023 807.224 165.121 793.102 150.793L759.717 183.698C782.205 206.513 813.459 220.798 848.057 221.064L848.417 174.19ZM892.573 161.017C879.955 169.45 864.784 174.316 848.417 174.19L848.057 221.064C874.111 221.264 898.436 213.478 918.618 199.991L892.573 161.017ZM981.714 137.128C949.788 136.882 919.745 145.3 893.893 160.198L917.298 200.811C936.123 189.963 957.99 183.822 981.353 184.001L981.714 137.128ZM1071.71 163.093C1045.54 146.853 1014.71 137.381 981.714 137.128L981.353 184.001C1005.49 184.187 1027.94 191.095 1047 202.924L1071.71 163.093ZM1036.49 177.873C1023.8 234.369 973.3 276.562 913 276.562V323.437C995.703 323.437 1064.84 265.574 1082.22 188.144L1036.49 177.873ZM913 276.562C849.376 276.562 796.681 229.592 787.768 168.442L741.383 175.203C753.604 259.052 825.762 323.437 913 323.437V276.562Z" fill="black" mask="url(#path-5-inside-2_967_11)"/>
</svg>
