<svg width="16" height="16" viewBox="0 0 16 16" fill="none" xmlns="http://www.w3.org/2000/svg">
<circle cx="8" cy="8" r="7.375" stroke="black" stroke-width="1.25"/>
<mask id="path-2-inside-1_961_16" fill="white">
<path fill-rule="evenodd" clip-rule="evenodd" d="M8 16C12.4183 16 16 12.4183 16 8C16 7.87843 15.9973 7.75749 15.9919 7.63724L12.4086 4.77803L11.4073 5.74942L9.46403 3.74645C6.82038 5.92307 3.56837 7.38752 0.00146484 7.84633C0.0731717 4.04017 2.80302 0.884308 6.41222 0.157558C2.75455 0.89406 0 4.12535 0 8C0 12.4183 3.58172 16 8 16ZM8.00003 0C8.00002 0 8.00002 0 8.00002 0Z"/>
</mask>
<path d="M8.00002 0.625H8.00003V-0.625H8.00002V0.625ZM15.9919 7.63724L17.2407 7.58152L17.2154 7.01429L16.7715 6.66017L15.9919 7.63724ZM12.4086 4.77803L13.1882 3.80095L12.328 3.11457L11.5381 3.88088L12.4086 4.77803ZM11.4073 5.74942L10.5102 6.61984L11.3806 7.51699L12.2778 6.64657L11.4073 5.74942ZM9.46403 3.74645L10.3612 2.87603L9.55893 2.04915L8.66951 2.78145L9.46403 3.74645ZM0.00146484 7.84633L-1.24831 7.82278L-1.2756 9.27089L0.160938 9.08611L0.00146484 7.84633ZM14.75 8C14.75 11.7279 11.7279 14.75 8 14.75V17.25C13.1086 17.25 17.25 13.1086 17.25 8H14.75ZM14.7432 7.69297C14.7477 7.79466 14.75 7.89702 14.75 8H17.25C17.25 7.85984 17.2469 7.72032 17.2407 7.58152L14.7432 7.69297ZM11.6289 5.75511L15.2123 8.61432L16.7715 6.66017L13.1882 3.80095L11.6289 5.75511ZM12.2778 6.64657L13.279 5.67517L11.5381 3.88088L10.5369 4.85228L12.2778 6.64657ZM8.56689 4.61687L10.5102 6.61984L12.3045 4.879L10.3612 2.87603L8.56689 4.61687ZM0.160938 9.08611C3.96826 8.59638 7.4389 7.03298 10.2586 4.71145L8.66951 2.78145C6.20187 4.81315 3.16848 6.17866 -0.158008 6.60654L0.160938 9.08611ZM6.16548 -1.06785C1.99166 -0.227405 -1.16537 3.41994 -1.24831 7.82278L1.25124 7.86987C1.31171 4.6604 3.61439 1.99602 6.65897 1.38296L6.16548 -1.06785ZM1.25 8C1.25 4.73221 3.57335 2.00428 6.65897 1.38296L6.16548 -1.06785C1.93575 -0.216157 -1.25 3.51849 -1.25 8H1.25ZM8 14.75C4.27208 14.75 1.25 11.7279 1.25 8H-1.25C-1.25 13.1086 2.89137 17.25 8 17.25V14.75ZM8.00003 -1.25C8.00003 -1.25 8.00003 -1.25 8.00003 -1.25C8.00003 -1.25 8.00003 -1.25 8.00003 -1.25C8.00003 -1.25 8.00003 -1.25 8.00003 -1.25C8.00003 -1.25 8.00003 -1.25 8.00003 -1.25C8.00003 -1.25 8.00003 -1.25 8.00003 -1.25C8.00003 -1.25 8.00003 -1.25 8.00003 -1.25C8.00003 -1.25 8.00003 -1.25 8.00003 -1.25C8.00003 -1.25 8.00003 -1.25 8.00003 -1.25C8.00003 -1.25 8.00003 -1.25 8.00003 -1.25C8.00003 -1.25 8.00003 -1.25 8.00003 -1.25C8.00003 -1.25 8.00003 -1.25 8.00003 -1.25C8.00003 -1.25 8.00003 -1.25 8.00003 -1.25C8.00003 -1.25 8.00003 -1.25 8.00003 -1.25C8.00003 -1.25 8.00003 -1.25 8.00003 -1.25C8.00003 -1.25 8.00003 -1.25 8.00003 -1.25C8.00003 -1.25 8.00003 -1.25 8.00003 -1.25C8.00003 -1.25 8.00003 -1.25 8.00003 -1.25C8.00003 -1.25 8.00003 -1.25 8.00003 -1.25C8.00003 -1.25 8.00003 -1.25 8.00003 -1.25C8.00003 -1.25 8.00003 -1.25 8.00003 -1.25C8.00003 -1.25 8.00003 -1.25 8.00003 -1.25C8.00003 -1.25 8.00003 -1.25 8.00003 -1.25C8.00003 -1.25 8.00003 -1.25 8.00003 -1.25C8.00003 -1.25 8.00003 -1.25 8.00003 -1.25C8.00003 -1.25 8.00003 -1.25 8.00003 -1.25C8.00003 -1.25 8.00003 -1.25 8.00003 -1.25C8.00003 -1.25 8.00003 -1.25 8.00003 -1.25C8.00003 -1.25 8.00003 -1.25 8.00003 -1.25C8.00003 -1.25 8.00003 -1.25 8.00003 -1.25C8.00003 -1.25 8.00003 -1.25 8.00003 -1.25C8.00003 -1.25 8.00003 -1.25 8.00003 -1.25C8.00003 -1.25 8.00003 -1.25 8.00003 -1.25C8.00003 -1.25 8.00003 -1.25 8.00003 -1.25C8.00003 -1.25 8.00003 -1.25 8.00003 -1.25C8.00003 -1.25 8.00003 -1.25 8.00003 -1.25C8.00003 -1.25 8.00003 -1.25 8.00003 -1.25C8.00003 -1.25 8.00003 -1.25 8.00003 -1.25C8.00003 -1.25 8.00003 -1.25 8.00003 -1.25C8.00003 -1.25 8.00003 -1.25 8.00003 -1.25C8.00003 -1.25 8.00003 -1.25 8.00003 -1.25C8.00003 -1.25 8.00003 -1.25 8.00003 -1.25C8.00003 -1.25 8.00003 -1.25 8.00003 -1.25C8.00003 -1.25 8.00003 -1.25 8.00003 -1.25C8.00003 -1.25 8.00003 -1.25 8.00003 -1.25C8.00003 -1.25 8.00003 -1.25 8.00002 -1.25C8.00002 -1.25 8.00002 -1.25 8.00002 -1.25C8.00002 -1.25 8.00002 -1.25 8.00002 -1.25C8.00002 -1.25 8.00002 -1.25 8.00002 -1.25C8.00002 -1.25 8.00002 -1.25 8.00002 -1.25C8.00002 -1.25 8.00002 -1.25 8.00002 -1.25C8.00002 -1.25 8.00002 -1.25 8.00002 -1.25C8.00002 -1.25 8.00002 -1.25 8.00002 -1.25C8.00002 -1.25 8.00002 -1.25 8.00002 -1.25C8.00002 -1.25 8.00002 -1.25 8.00002 -1.25C8.00002 -1.25 8.00002 -1.25 8.00002 -1.25C8.00002 -1.25 8.00002 -1.25 8.00002 -1.25C8.00002 -1.25 8.00002 -1.25 8.00002 -1.25C8.00002 -1.25 8.00002 -1.25 8.00002 -1.25C8.00002 -1.25 8.00002 -1.25 8.00002 -1.25C8.00002 -1.25 8.00002 -1.25 8.00002 -1.25C8.00002 -1.25 8.00002 -1.25 8.00002 -1.25C8.00002 -1.25 8.00002 -1.25 8.00002 -1.25C8.00002 -1.25 8.00002 -1.25 8.00002 -1.25C8.00002 -1.25 8.00002 -1.25 8.00002 -1.25C8.00002 -1.25 8.00002 -1.25 8.00002 -1.25C8.00002 -1.25 8.00002 -1.25 8.00002 -1.25C8.00002 -1.25 8.00002 -1.25 8.00002 -1.25C8.00002 -1.25 8.00002 -1.25 8.00002 -1.25C8.00002 -1.25 8.00002 -1.25 8.00002 -1.25C8.00002 -1.25 8.00002 -1.25 8.00002 -1.25C8.00002 -1.25 8.00002 -1.25 8.00002 -1.25C8.00002 -1.25 8.00002 -1.25 8.00002 -1.25C8.00002 -1.25 8.00002 -1.25 8.00002 -1.25C8.00002 -1.25 8.00002 -1.25 8.00002 -1.25C8.00002 -1.25 8.00002 -1.25 8.00002 -1.25C8.00002 -1.25 8.00002 -1.25 8.00002 -1.25C8.00002 -1.25 8.00002 -1.25 8.00002 -1.25C8.00002 -1.25 8.00002 -1.25 8.00002 -1.25C8.00002 -1.25 8.00002 -1.25 8.00002 -1.25C8.00002 -1.25 8.00002 -1.25 8.00002 -1.25C8.00002 -1.25 8.00002 -1.25 8.00002 -1.25C8.00002 -1.25 8.00002 -1.25 8.00002 -1.25C8.00002 -1.25 8.00002 -1.25 8.00002 -1.25C8.00002 -1.25 8.00002 -1.25 8.00002 -1.25C8.00002 -1.25 8.00002 -1.25 8.00002 -1.25C8.00002 -1.25 8.00002 -1.25 8.00002 -1.25C8.00002 -1.25 8.00002 -1.25 8.00002 -1.25C8.00002 -1.25 8.00002 -1.25 8.00002 -1.25C8.00002 -1.25 8.00002 -1.25 8.00002 -1.25C8.00002 -1.25 8.00002 -1.25 8.00002 -1.25C8.00002 -1.25 8.00002 -1.25 8.00002 -1.25C8.00002 -1.25 8.00002 -1.25 8.00002 -1.25C8.00002 -1.25 8.00002 -1.25 8.00002 -1.25C8.00002 -1.25 8.00002 -1.25 8.00002 -1.25C8.00002 -1.25 8.00002 -1.25 8.00002 -1.25C8.00002 -1.25 8.00002 -1.25 8.00002 -1.25C8.00002 -1.25 8.00002 -1.25 8.00002 -1.25C8.00002 -1.25 8.00002 -1.25 8.00002 -1.25C8.00002 -1.25 8.00002 -1.25 8.00002 -1.25C8.00002 -1.25 8.00002 -1.25 8.00002 -1.25C8.00002 -1.25 8.00002 -1.25 8.00002 -1.25C8.00002 -1.25 8.00002 -1.25 8.00002 -1.25C8.00002 -1.25 8.00002 -1.25 8.00002 -1.25C8.00002 -1.25 8.00002 -1.25 8.00002 -1.25C8.00002 -1.25 8.00002 -1.25 8.00002 -1.25C8.00002 -1.25 8.00002 -1.25 8.00002 -1.25C8.00002 -1.25 8.00002 -1.25 8.00002 -1.25C8.00002 -1.25 8.00002 -1.25 8.00002 -1.25C8.00002 -1.25 8.00002 -1.25 8.00002 -1.25C8.00002 -1.25 8.00002 -1.25 8.00002 -1.25C8.00002 -1.25 8.00002 -1.25 8.00002 -1.25C8.00002 -1.25 8.00002 -1.25 8.00002 -1.25C8.00002 -1.25 8.00002 -1.25 8.00002 -1.25C8.00002 -1.25 8.00002 -1.25 8.00002 -1.25C8.00002 -1.25 8.00002 -1.25 8.00002 -1.25C8.00002 -1.25 8.00002 -1.25 8.00002 -1.25C8.00002 -1.25 8.00002 -1.25 8.00002 -1.25C8.00002 -1.25 8.00002 -1.25 8.00002 -1.25C8.00002 -1.25 8.00002 -1.25 8.00002 -1.25C8.00002 -1.25 8.00002 -1.25 8.00002 -1.25C8.00002 -1.25 8.00002 -1.25 8.00002 -1.25C8.00002 -1.25 8.00002 -1.25 8.00002 -1.25C8.00002 -1.25 8.00002 -1.25 8.00002 -1.25C8.00002 -1.25 8.00002 -1.25 8.00002 -1.25C8.00002 -1.25 8.00002 -1.25 8.00002 -1.25C8.00002 -1.25 8.00002 -1.25 8.00002 -1.25C8.00002 -1.25 8.00002 -1.25 8.00002 -1.25C8.00002 -1.25 8.00002 -1.25 8.00002 -1.25C8.00002 -1.25 8.00002 -1.25 8.00002 -1.25C8.00002 -1.25 8.00002 -1.25 8.00002 -1.25C8.00002 -1.25 8.00002 -1.25 8.00002 -1.25C8.00002 -1.25 8.00002 -1.25 8.00002 -1.25C8.00002 -1.25 8.00002 -1.25 8.00002 -1.25C8.00002 -1.25 8.00002 -1.25 8.00002 -1.25C8.00002 -1.25 8.00002 -1.25 8.00002 -1.25C8.00002 -1.25 8.00002 -1.25 8.00002 -1.25C8.00002 -1.25 8.00002 -1.25 8.00002 -1.25C8.00002 -1.25 8.00002 -1.25 8.00002 -1.25C8.00002 -1.25 8.00002 -1.25 8.00002 -1.25C8.00002 -1.25 8.00002 -1.25 8.00002 -1.25C8.00002 -1.25 8.00002 -1.25 8.00002 -1.25C8.00002 -1.25 8.00002 -1.25 8.00002 -1.25C8.00002 -1.25 8.00002 -1.25 8.00002 -1.25C8.00002 -1.25 8.00002 -1.25 8.00002 -1.25C8.00002 -1.25 8.00002 -1.25 8.00002 -1.25C8.00002 -1.25 8.00002 -1.25 8.00002 -1.25C8.00002 -1.25 8.00002 -1.25 8.00002 -1.25C8.00002 -1.25 8.00002 -1.25 8.00002 -1.25C8.00002 -1.25 8.00002 -1.25 8.00002 -1.25C8.00002 -1.25 8.00002 -1.25 8.00002 -1.25C8.00002 -1.25 8.00002 -1.25 8.00002 -1.25C8.00002 -1.25 8.00002 -1.25 8.00002 -1.25C8.00002 -1.25 8.00002 -1.25 8.00002 -1.25C8.00002 -1.25 8.00002 -1.25 8.00002 -1.25C8.00002 -1.25 8.00002 -1.25 8.00002 -1.25C8.00002 -1.25 8.00002 -1.25 8.00002 -1.25C8.00002 -1.25 8.00002 -1.25 8.00002 -1.25C8.00002 -1.25 8.00002 -1.25 8.00002 -1.25C8.00002 -1.25 8.00002 -1.25 8.00002 -1.25C8.00002 -1.25 8.00002 -1.25 8.00002 -1.25C8.00002 -1.25 8.00002 -1.25 8.00002 -1.25C8.00002 -1.25 8.00002 -1.25 8.00002 -1.25C8.00002 -1.25 8.00002 -1.25 8.00002 -1.25C8.00002 -1.25 8.00002 -1.25 8.00002 -1.25C8.00002 -1.25 8.00002 -1.25 8.00002 -1.25C8.00002 -1.25 8.00002 -1.25 8.00002 -1.25C8.00002 -1.25 8.00002 -1.25 8.00002 -1.25C8.00002 -1.25 8.00002 -1.25 8.00002 -1.25C8.00002 -1.25 8.00002 -1.25 8.00002 -1.25C8.00002 -1.25 8.00002 -1.25 8.00002 -1.25C8.00002 -1.25 8.00002 -1.25 8.00002 -1.25C8.00002 -1.25 8.00002 -1.25 8.00002 -1.25C8.00002 -1.25 8.00002 -1.25 8.00002 -1.25C8.00002 -1.25 8.00002 -1.25 8.00002 -1.25C8.00002 -1.25 8.00002 -1.25 8.00002 -1.25C8.00002 -1.25 8.00002 -1.25 8.00002 -1.25C8.00002 -1.25 8.00002 -1.25 8.00002 -1.25C8.00002 -1.25 8.00002 -1.25 8.00002 -1.25C8.00002 -1.25 8.00002 -1.25 8.00002 -1.25C8.00002 -1.25 8.00002 -1.25 8.00002 -1.25C8.00002 -1.25 8.00002 -1.25 8.00002 -1.25C8.00002 -1.25 8.00002 -1.25 8.00002 -1.25C8.00002 -1.25 8.00002 -1.25 8.00002 -1.25C8.00002 -1.25 8.00002 -1.25 8.00002 -1.25C8.00002 -1.25 8.00002 -1.25 8.00002 -1.25C8.00002 -1.25 8.00002 -1.25 8.00002 -1.25C8.00002 -1.25 8.00002 -1.25 8.00002 -1.25C8.00002 -1.25 8.00002 -1.25 8.00002 -1.25C8.00002 -1.25 8.00002 -1.25 8.00002 -1.25C8.00002 -1.25 8.00002 -1.25 8.00002 -1.25C8.00002 -1.25 8.00002 -1.25 8.00002 -1.25C8.00002 -1.25 8.00002 -1.25 8.00002 -1.25C8.00002 -1.25 8.00002 -1.25 8.00002 -1.25C8.00002 -1.25 8.00002 -1.25 8.00002 -1.25C8.00002 -1.25 8.00002 -1.25 8.00002 -1.25C8.00002 -1.25 8.00002 -1.25 8.00002 -1.25C8.00002 -1.25 8.00002 -1.25 8.00002 -1.25C8.00002 -1.25 8.00002 -1.25 8.00002 -1.25C8.00002 -1.25 8.00002 -1.25 8.00002 -1.25C8.00002 -1.25 8.00002 -1.25 8.00002 -1.25C8.00002 -1.25 8.00002 -1.25 8.00002 -1.25C8.00002 -1.25 8.00002 -1.25 8.00002 -1.25C8.00002 -1.25 8.00002 -1.25 8.00002 -1.25C8.00002 -1.25 8.00002 -1.25 8.00002 -1.25C8.00002 -1.25 8.00002 -1.25 8.00002 -1.25C8.00002 -1.25 8.00002 -1.25 8.00002 -1.25C8.00002 -1.25 8.00002 -1.25 8.00002 -1.25C8.00002 -1.25 8.00002 -1.25 8.00002 -1.25C8.00002 -1.25 8.00002 -1.25 8.00002 -1.25C8.00002 -1.25 8.00002 -1.25 8.00002 -1.25C8.00002 -1.25 8.00002 -1.25 8.00002 -1.25C8.00002 -1.25 8.00002 -1.25 8.00002 -1.25C8.00002 -1.25 8.00002 -1.25 8.00002 -1.25C8.00002 -1.25 8.00002 -1.25 8.00002 -1.25C8.00002 -1.25 8.00002 -1.25 8.00002 -1.25C8.00002 -1.25 8.00002 -1.25 8.00002 -1.25C8.00002 -1.25 8.00002 -1.25 8.00002 -1.25C8.00002 -1.25 8.00002 -1.25 8.00002 -1.25C8.00002 -1.25 8.00002 -1.25 8.00002 -1.25C8.00002 -1.25 8.00002 -1.25 8.00002 -1.25C8.00002 -1.25 8.00002 -1.25 8.00002 -1.25C8.00002 -1.25 8.00002 -1.25 8.00002 -1.25C8.00002 -1.25 8.00002 -1.25 8.00002 -1.25C8.00002 -1.25 8.00002 -1.25 8.00002 -1.25C8.00002 -1.25 8.00002 -1.25 8.00002 -1.25C8.00002 -1.25 8.00002 -1.25 8.00002 -1.25C8.00002 -1.25 8.00002 -1.25 8.00002 -1.25C8.00002 -1.25 8.00002 -1.25 8.00002 -1.25C8.00002 -1.25 8.00002 -1.25 8.00002 -1.25C8.00002 -1.25 8.00002 -1.25 8.00002 -1.25C8.00002 -1.25 8.00002 -1.25 8.00002 -1.25C8.00002 -1.25 8.00002 -1.25 8.00002 -1.25C8.00002 -1.25 8.00002 -1.25 8.00002 -1.25C8.00002 -1.25 8.00002 -1.25 8.00002 -1.25C8.00002 -1.25 8.00002 -1.25 8.00002 -1.25C8.00002 -1.25 8.00002 -1.25 8.00002 -1.25C8.00002 -1.25 8.00002 -1.25 8.00002 -1.25C8.00002 -1.25 8.00002 -1.25 8.00002 -1.25C8.00002 -1.25 8.00002 -1.25 8.00002 -1.25C8.00002 -1.25 8.00002 -1.25 8.00002 -1.25C8.00002 -1.25 8.00002 -1.25 8.00002 -1.25C8.00002 -1.25 8.00002 -1.25 8.00002 -1.25C8.00002 -1.25 8.00002 -1.25 8.00002 -1.25C8.00002 -1.25 8.00002 -1.25 8.00002 -1.25C8.00002 -1.25 8.00002 -1.25 8.00002 -1.25C8.00002 -1.25 8.00002 -1.25 8.00002 -1.25C8.00002 -1.25 8.00002 -1.25 8.00002 -1.25C8.00002 -1.25 8.00002 -1.25 8.00002 -1.25C8.00002 -1.25 8.00002 -1.25 8.00002 -1.25C8.00002 -1.25 8.00002 -1.25 8.00002 -1.25C8.00002 -1.25 8.00002 -1.25 8.00002 -1.25C8.00002 -1.25 8.00002 -1.25 8.00002 -1.25C8.00002 -1.25 8.00002 -1.25 8.00002 -1.25C8.00002 -1.25 8.00002 -1.25 8.00002 -1.25C8.00002 -1.25 8.00002 -1.25 8.00002 -1.25C8.00002 -1.25 8.00002 -1.25 8.00002 -1.25C8.00002 -1.25 8.00002 -1.25 8.00002 -1.25C8.00002 -1.25 8.00002 -1.25 8.00002 -1.25C8.00002 -1.25 8.00002 -1.25 8.00002 -1.25C8.00002 -1.25 8.00002 -1.25 8.00002 -1.25C8.00002 -1.25 8.00002 -1.25 8.00002 -1.25C8.00002 -1.25 8.00002 -1.25 8.00002 -1.25C8.00002 -1.25 8.00002 -1.25 8.00002 -1.25C8.00002 -1.25 8.00002 -1.25 8.00002 -1.25C8.00002 -1.25 8.00002 -1.25 8.00002 -1.25C8.00002 -1.25 8.00002 -1.25 8.00002 -1.25C8.00002 -1.25 8.00002 -1.25 8.00002 -1.25C8.00002 -1.25 8.00002 -1.25 8.00002 -1.25C8.00002 -1.25 8.00002 -1.25 8.00002 -1.25C8.00002 -1.25 8.00002 -1.25 8.00002 -1.25C8.00002 -1.25 8.00002 -1.25 8.00002 -1.25C8.00002 -1.25 8.00002 -1.25 8.00002 -1.25C8.00002 -1.25 8.00002 -1.25 8.00002 -1.25C8.00002 -1.25 8.00002 -1.25 8.00002 -1.25C8.00002 -1.25 8.00002 -1.25 8.00002 -1.25C8.00002 -1.25 8.00002 -1.25 8.00002 -1.25C8.00002 -1.25 8.00002 -1.25 8.00002 -1.25C8.00002 -1.25 8.00002 -1.25 8.00002 -1.25C8.00002 -1.25 8.00002 -1.25 8.00002 -1.25C8.00002 -1.25 8.00002 -1.25 8.00002 -1.25C8.00002 -1.25 8.00002 -1.25 8.00002 -1.25C8.00002 -1.25 8.00002 -1.25 8.00002 -1.25C8.00002 -1.25 8.00002 -1.25 8.00002 -1.25C8.00002 -1.25 8.00002 -1.25 8.00002 -1.25C8.00002 -1.25 8.00002 -1.25 8.00002 -1.25C8.00002 -1.25 8.00002 -1.25 8.00002 -1.25C8.00002 -1.25 8.00002 -1.25 8.00002 -1.25C8.00002 -1.25 8.00002 -1.25 8.00002 -1.25C8.00002 -1.25 8.00002 -1.25 8.00002 -1.25C8.00002 -1.25 8.00002 -1.25 8.00002 -1.25C8.00002 -1.25 8.00002 -1.25 8.00002 -1.25C8.00002 -1.25 8.00002 -1.25 8.00002 -1.25C8.00002 -1.25 8.00002 -1.25 8.00002 -1.25C8.00002 -1.25 8.00002 -1.25 8.00002 -1.25C8.00002 -1.25 8.00002 -1.25 8.00002 -1.25C8.00002 -1.25 8.00002 -1.25 8.00002 -1.25C8.00002 -1.25 8.00002 -1.25 8.00002 -1.25C8.00002 -1.25 8.00002 -1.25 8.00002 -1.25C8.00002 -1.25 8.00002 -1.25 8.00002 -1.25C8.00002 -1.25 8.00002 -1.25 8.00002 -1.25C8.00002 -1.25 8.00002 -1.25 8.00002 -1.25C8.00002 -1.25 8.00002 -1.25 8.00002 -1.25C8.00002 -1.25 8.00002 -1.25 8.00002 -1.25C8.00002 -1.25 8.00002 -1.25 8.00002 -1.25C8.00002 -1.25 8.00002 -1.25 8.00002 -1.25C8.00002 -1.25 8.00002 -1.25 8.00002 -1.25C8.00002 -1.25 8.00002 -1.25 8.00002 -1.25C8.00002 -1.25 8.00002 -1.25 8.00002 -1.25C8.00002 -1.25 8.00002 -1.25 8.00002 -1.25C8.00002 -1.25 8.00002 -1.25 8.00002 -1.25C8.00002 -1.25 8.00002 -1.25 8.00002 -1.25C8.00002 -1.25 8.00002 -1.25 8.00002 -1.25C8.00002 -1.25 8.00002 -1.25 8.00002 -1.25C8.00002 -1.25 8.00002 -1.25 8.00002 -1.25C8.00002 -1.25 8.00002 -1.25 8.00002 -1.25C8.00002 -1.25 8.00002 -1.25 8.00002 -1.25C8.00002 -1.25 8.00002 -1.25 8.00002 -1.25C8.00002 -1.25 8.00002 -1.25 8.00002 -1.25C8.00002 -1.25 8.00002 -1.25 8.00002 -1.25C8.00002 -1.25 8.00002 -1.25 8.00002 -1.25C8.00002 -1.25 8.00002 -1.25 8.00002 -1.25C8.00002 -1.25 8.00002 -1.25 8.00002 -1.25C8.00002 -1.25 8.00002 -1.25 8.00002 -1.25C8.00002 -1.25 8.00002 -1.25 8.00002 -1.25C8.00002 -1.25 8.00002 -1.25 8.00002 -1.25C8.00002 -1.25 8.00002 -1.25 8.00002 -1.25C8.00002 -1.25 8.00002 -1.25 8.00002 -1.25C8.00002 -1.25 8.00002 -1.25 8.00002 -1.25C8.00002 -1.25 8.00002 -1.25 8.00002 -1.25C8.00002 -1.25 8.00002 -1.25 8.00002 -1.25C8.00002 -1.25 8.00002 -1.25 8.00002 -1.25C8.00002 -1.25 8.00002 -1.25 8.00002 -1.25C8.00002 -1.25 8.00002 -1.25 8.00002 -1.25C8.00002 -1.25 8.00002 -1.25 8.00002 -1.25C8.00002 -1.25 8.00002 -1.25 8.00002 -1.25C8.00002 -1.25 8.00002 -1.25 8.00002 -1.25C8.00002 -1.25 8.00002 -1.25 8.00002 -1.25C8.00002 -1.25 8.00002 -1.25 8.00002 -1.25C8.00002 -1.25 8.00002 -1.25 8.00002 -1.25C8.00002 -1.25 8.00002 -1.25 8.00002 -1.25C8.00002 -1.25 8.00002 -1.25 8.00002 -1.25C8.00002 -1.25 8.00002 -1.25 8.00002 -1.25C8.00002 -1.25 8.00002 -1.25 8.00002 -1.25C8.00002 -1.25 8.00002 -1.25 8.00002 -1.25C8.00002 -1.25 8.00002 -1.25 8.00002 -1.25C8.00002 -1.25 8.00002 -1.25 8.00002 -1.25C8.00002 -1.25 8.00002 -1.25 8.00002 -1.25C8.00002 -1.25 8.00002 -1.25 8.00002 -1.25C8.00002 -1.25 8.00002 -1.25 8.00002 -1.25C8.00002 -1.25 8.00002 -1.25 8.00002 -1.25C8.00002 -1.25 8.00002 -1.25 8.00002 -1.25C8.00002 -1.25 8.00002 -1.25 8.00002 -1.25C8.00002 -1.25 8.00002 -1.25 8.00002 -1.25C8.00002 -1.25 8.00002 -1.25 8.00002 -1.25C8.00002 -1.25 8.00002 -1.25 8.00002 -1.25C8.00002 -1.25 8.00002 -1.25 8.00002 -1.25C8.00002 -1.25 8.00002 -1.25 8.00002 -1.25C8.00002 -1.25 8.00002 -1.25 8.00002 -1.25C8.00002 -1.25 8.00002 -1.25 8.00002 -1.25C8.00002 -1.25 8.00002 -1.25 8.00002 -1.25C8.00002 -1.25 8.00002 -1.25 8.00002 -1.25C8.00002 -1.25 8.00002 -1.25 8.00002 -1.25C8.00002 -1.25 8.00002 -1.25 8.00002 -1.25C8.00002 -1.25 8.00002 -1.25 8.00002 -1.25C8.00002 -1.25 8.00002 -1.25 8.00002 -1.25C8.00002 -1.25 8.00002 -1.25 8.00002 -1.25C8.00002 -1.25 8.00002 -1.25 8.00002 -1.25C8.00002 -1.25 8.00002 -1.25 8.00002 -1.25C8.00002 -1.25 8.00002 -1.25 8.00002 -1.25C8.00002 -1.25 8.00002 -1.25 8.00002 -1.25C8.00002 -1.25 8.00002 -1.25 8.00002 -1.25C8.00002 -1.25 8.00002 -1.25 8.00002 -1.25C8.00002 -1.25 8.00002 -1.25 8.00002 -1.25C8.00002 -1.25 8.00002 -1.25 8.00002 -1.25C8.00002 -1.25 8.00002 -1.25 8.00002 -1.25C8.00002 -1.25 8.00002 -1.25 8.00002 -1.25C8.00002 -1.25 8.00002 -1.25 8.00002 -1.25C8.00002 -1.25 8.00002 -1.25 8.00002 -1.25C8.00002 -1.25 8.00002 -1.25 8.00002 -1.25C8.00002 -1.25 8.00002 -1.25 8.00002 -1.25C8.00002 -1.25 8.00002 -1.25 8.00002 -1.25C8.00002 -1.25 8.00002 -1.25 8.00002 -1.25C8.00002 -1.25 8.00002 -1.25 8.00002 -1.25C8.00002 -1.25 8.00002 -1.25 8.00002 -1.25C8.00002 -1.25 8.00002 -1.25 8.00002 -1.25C8.00002 -1.25 8.00002 -1.25 8.00002 -1.25C8.00002 -1.25 8.00002 -1.25 8.00002 -1.25C8.00002 -1.25 8.00002 -1.25 8.00002 -1.25C8.00002 -1.25 8.00002 -1.25 8.00002 -1.25C8.00002 -1.25 8.00002 -1.25 8.00002 -1.25C8.00002 -1.25 8.00002 -1.25 8.00002 -1.25C8.00002 -1.25 8.00002 -1.25 8.00002 -1.25C8.00002 -1.25 8.00002 -1.25 8.00002 -1.25C8.00002 -1.25 8.00002 -1.25 8.00002 -1.25C8.00002 -1.25 8.00002 -1.25 8.00002 -1.25C8.00002 -1.25 8.00002 -1.25 8.00002 -1.25C8.00002 -1.25 8.00002 -1.25 8.00002 -1.25C8.00002 -1.25 8.00002 -1.25 8.00002 -1.25C8.00002 -1.25 8.00002 -1.25 8.00002 -1.25C8.00002 -1.25 8.00002 -1.25 8.00002 -1.25C8.00002 -1.25 8.00002 -1.25 8.00002 -1.25C8.00002 -1.25 8.00002 -1.25 8.00002 -1.25C8.00002 -1.25 8.00002 -1.25 8.00002 -1.25C8.00002 -1.25 8.00002 -1.25 8.00002 -1.25C8.00002 -1.25 8.00002 -1.25 8.00002 -1.25C8.00002 -1.25 8.00002 -1.25 8.00002 -1.25C8.00002 -1.25 8.00002 -1.25 8.00002 -1.25C8.00002 -1.25 8.00002 -1.25 8.00002 -1.25C8.00002 -1.25 8.00002 -1.25 8.00002 -1.25C8.00002 -1.25 8.00002 -1.25 8.00002 -1.25C8.00002 -1.25 8.00002 -1.25 8.00002 -1.25C8.00002 -1.25 8.00002 -1.25 8.00002 -1.25C8.00002 -1.25 8.00002 -1.25 8.00002 -1.25C8.00002 -1.25 8.00002 -1.25 8.00002 -1.25C8.00002 -1.25 8.00002 -1.25 8.00002 -1.25C8.00002 -1.25 8.00002 -1.25 8.00002 -1.25C8.00002 -1.25 8.00002 -1.25 8.00002 -1.25C8.00002 -1.25 8.00002 -1.25 8.00002 -1.25C8.00002 -1.25 8.00002 -1.25 8.00002 -1.25C8.00002 -1.25 8.00002 -1.25 8.00002 -1.25C8.00002 -1.25 8.00002 -1.25 8.00002 -1.25C8.00002 -1.25 8.00002 -1.25 8.00002 -1.25C8.00002 -1.25 8.00002 -1.25 8.00002 -1.25C8.00002 -1.25 8.00002 -1.25 8.00002 -1.25C8.00002 -1.25 8.00002 -1.25 8.00002 -1.25C8.00002 -1.25 8.00002 -1.25 8.00002 -1.25C8.00002 -1.25 8.00002 -1.25 8.00002 -1.25C8.00002 -1.25 8.00002 -1.25 8.00002 -1.25C8.00002 -1.25 8.00002 -1.25 8.00002 -1.25C8.00002 -1.25 8.00002 -1.25 8.00002 -1.25C8.00002 -1.25 8.00002 -1.25 8.00002 -1.25C8.00002 -1.25 8.00002 -1.25 8.00002 -1.25C8.00002 -1.25 8.00002 -1.25 8.00002 -1.25C8.00002 -1.25 8.00002 -1.25 8.00002 -1.25C8.00002 -1.25 8.00002 -1.25 8.00002 -1.25C8.00002 -1.25 8.00002 -1.25 8.00002 -1.25C8.00002 -1.25 8.00002 -1.25 8.00002 -1.25C8.00002 -1.25 8.00002 -1.25 8.00002 -1.25C8.00002 -1.25 8.00002 -1.25 8.00002 -1.25C8.00002 -1.25 8.00002 -1.25 8.00002 -1.25C8.00002 -1.25 8.00002 -1.25 8.00002 -1.25C8.00002 -1.25 8.00002 -1.25 8.00002 -1.25C8.00002 -1.25 8.00002 -1.25 8.00002 -1.25C8.00002 -1.25 8.00002 -1.25 8.00002 -1.25C8.00002 -1.25 8.00002 -1.25 8.00002 -1.25C8.00002 -1.25 8.00002 -1.25 8.00002 -1.25C8.00002 -1.25 8.00002 -1.25 8.00002 -1.25C8.00002 -1.25 8.00002 -1.25 8.00002 -1.25C8.00002 -1.25 8.00002 -1.25 8.00002 -1.25C8.00002 -1.25 8.00002 -1.25 8.00002 -1.25C8.00002 -1.25 8.00002 -1.25 8.00002 -1.25C8.00002 -1.25 8.00002 -1.25 8.00002 -1.25C8.00002 -1.25 8.00002 -1.25 8.00002 -1.25C8.00002 -1.25 8.00002 -1.25 8.00002 -1.25C8.00002 -1.25 8.00002 -1.25 8.00002 -1.25C8.00002 -1.25 8.00002 -1.25 8.00002 -1.25C8.00002 -1.25 8.00002 -1.25 8.00002 -1.25C8.00002 -1.25 8.00002 -1.25 8.00002 -1.25C8.00002 -1.25 8.00002 -1.25 8.00002 -1.25C8.00002 -1.25 8.00002 -1.25 8.00002 -1.25C8.00002 -1.25 8.00002 -1.25 8.00002 -1.25C8.00002 -1.25 8.00002 -1.25 8.00002 -1.25C8.00002 -1.25 8.00002 -1.25 8.00002 -1.25C8.00002 -1.25 8.00002 -1.25 8.00002 -1.25C8.00002 -1.25 8.00002 -1.25 8.00002 -1.25C8.00002 -1.25 8.00002 -1.25 8.00002 -1.25C8.00002 -1.25 8.00002 -1.25 8.00002 -1.25C8.00002 -1.25 8.00002 -1.25 8.00002 -1.25C8.00002 -1.25 8.00002 -1.25 8.00002 -1.25C8.00002 -1.25 8.00002 -1.25 8.00002 -1.25C8.00002 -1.25 8.00002 -1.25 8.00002 -1.25C8.00002 -1.25 8.00002 -1.25 8.00002 -1.25C8.00002 -1.25 8.00002 -1.25 8.00002 -1.25C8.00002 -1.25 8.00002 -1.25 8.00002 -1.25C8.00002 -1.25 8.00002 -1.25 8.00002 -1.25C8.00002 -1.25 8.00002 -1.25 8.00002 -1.25C8.00002 -1.25 8.00002 -1.25 8.00002 -1.25C8.00002 -1.25 8.00002 -1.25 8.00002 -1.25C8.00002 -1.25 8.00002 -1.25 8.00002 -1.25C8.00002 -1.25 8.00002 -1.25 8.00002 -1.25C8.00002 -1.25 8.00002 -1.25 8.00002 -1.25C8.00002 -1.25 8.00002 -1.25 8.00002 -1.25C8.00002 -1.25 8.00002 -1.25 8.00002 -1.25C8.00002 -1.25 8.00002 -1.25 8.00002 -1.25C8.00002 -1.25 8.00002 -1.25 8.00002 -1.25C8.00002 -1.25 8.00002 -1.25 8.00002 -1.25C8.00002 -1.25 8.00002 -1.25 8.00002 -1.25C8.00002 -1.25 8.00002 -1.25 8.00002 -1.25C8.00002 -1.25 8.00002 -1.25 8.00002 -1.25C8.00002 -1.25 8.00002 -1.25 8.00002 -1.25C8.00002 -1.25 8.00002 -1.25 8.00002 -1.25C8.00002 -1.25 8.00002 -1.25 8.00002 -1.25C8.00002 -1.25 8.00002 -1.25 8.00002 -1.25C8.00002 -1.25 8.00002 -1.25 8.00002 -1.25C8.00002 -1.25 8.00002 -1.25 8.00002 -1.25C8.00002 -1.25 8.00002 -1.25 8.00002 -1.25C8.00002 -1.25 8.00002 -1.25 8.00002 -1.25C8.00002 -1.25 8.00002 -1.25 8.00002 -1.25C8.00002 -1.25 8.00002 -1.25 8.00002 -1.25C8.00002 -1.25 8.00002 -1.25 8.00002 -1.25C8.00002 -1.25 8.00002 -1.25 8.00002 -1.25C8.00002 -1.25 8.00002 -1.25 8.00002 -1.25C8.00002 -1.25 8.00002 -1.25 8.00002 -1.25C8.00002 -1.25 8.00002 -1.25 8.00002 -1.25C8.00002 -1.25 8.00002 -1.25 8.00002 -1.25C8.00002 -1.25 8.00002 -1.25 8.00002 -1.25C8.00002 -1.25 8.00002 -1.25 8.00002 -1.25C8.00002 -1.25 8.00002 -1.25 8.00002 -1.25C8.00002 -1.25 8.00002 -1.25 8.00002 -1.25C8.00002 -1.25 8.00002 -1.25 8.00002 -1.25C8.00002 -1.25 8.00002 -1.25 8.00002 -1.25C8.00002 -1.25 8.00002 -1.25 8.00002 -1.25V1.25C8.00002 1.25 8.00002 1.25 8.00002 1.25C8.00002 1.25 8.00002 1.25 8.00002 1.25C8.00002 1.25 8.00002 1.25 8.00002 1.25C8.00002 1.25 8.00002 1.25 8.00002 1.25C8.00002 1.25 8.00002 1.25 8.00002 1.25C8.00002 1.25 8.00002 1.25 8.00002 1.25C8.00002 1.25 8.00002 1.25 8.00002 1.25C8.00002 1.25 8.00002 1.25 8.00002 1.25C8.00002 1.25 8.00002 1.25 8.00002 1.25C8.00002 1.25 8.00002 1.25 8.00002 1.25C8.00002 1.25 8.00002 1.25 8.00002 1.25C8.00002 1.25 8.00002 1.25 8.00002 1.25C8.00002 1.25 8.00002 1.25 8.00002 1.25C8.00002 1.25 8.00002 1.25 8.00002 1.25C8.00002 1.25 8.00002 1.25 8.00002 1.25C8.00002 1.25 8.00002 1.25 8.00002 1.25C8.00002 1.25 8.00002 1.25 8.00002 1.25C8.00002 1.25 8.00002 1.25 8.00002 1.25C8.00002 1.25 8.00002 1.25 8.00002 1.25C8.00002 1.25 8.00002 1.25 8.00002 1.25C8.00002 1.25 8.00002 1.25 8.00002 1.25C8.00002 1.25 8.00002 1.25 8.00002 1.25C8.00002 1.25 8.00002 1.25 8.00002 1.25C8.00002 1.25 8.00002 1.25 8.00002 1.25C8.00002 1.25 8.00002 1.25 8.00002 1.25C8.00002 1.25 8.00002 1.25 8.00002 1.25C8.00002 1.25 8.00002 1.25 8.00002 1.25C8.00002 1.25 8.00002 1.25 8.00002 1.25C8.00002 1.25 8.00002 1.25 8.00002 1.25C8.00002 1.25 8.00002 1.25 8.00002 1.25C8.00002 1.25 8.00002 1.25 8.00002 1.25C8.00002 1.25 8.00002 1.25 8.00002 1.25C8.00002 1.25 8.00002 1.25 8.00002 1.25C8.00002 1.25 8.00002 1.25 8.00002 1.25C8.00002 1.25 8.00002 1.25 8.00002 1.25C8.00002 1.25 8.00002 1.25 8.00002 1.25C8.00002 1.25 8.00002 1.25 8.00002 1.25C8.00002 1.25 8.00002 1.25 8.00002 1.25C8.00002 1.25 8.00002 1.25 8.00002 1.25C8.00002 1.25 8.00002 1.25 8.00002 1.25C8.00002 1.25 8.00002 1.25 8.00002 1.25C8.00002 1.25 8.00002 1.25 8.00002 1.25C8.00002 1.25 8.00002 1.25 8.00002 1.25C8.00002 1.25 8.00002 1.25 8.00002 1.25C8.00002 1.25 8.00002 1.25 8.00002 1.25C8.00002 1.25 8.00002 1.25 8.00002 1.25C8.00002 1.25 8.00002 1.25 8.00002 1.25C8.00002 1.25 8.00002 1.25 8.00002 1.25C8.00002 1.25 8.00002 1.25 8.00002 1.25C8.00002 1.25 8.00002 1.25 8.00002 1.25C8.00002 1.25 8.00002 1.25 8.00002 1.25C8.00002 1.25 8.00002 1.25 8.00002 1.25C8.00002 1.25 8.00002 1.25 8.00002 1.25C8.00002 1.25 8.00002 1.25 8.00002 1.25C8.00002 1.25 8.00002 1.25 8.00002 1.25C8.00002 1.25 8.00002 1.25 8.00002 1.25C8.00002 1.25 8.00002 1.25 8.00002 1.25C8.00002 1.25 8.00002 1.25 8.00002 1.25C8.00002 1.25 8.00002 1.25 8.00002 1.25C8.00002 1.25 8.00002 1.25 8.00002 1.25C8.00002 1.25 8.00002 1.25 8.00002 1.25C8.00002 1.25 8.00002 1.25 8.00002 1.25C8.00002 1.25 8.00002 1.25 8.00002 1.25C8.00002 1.25 8.00002 1.25 8.00002 1.25C8.00002 1.25 8.00002 1.25 8.00002 1.25C8.00002 1.25 8.00002 1.25 8.00002 1.25C8.00002 1.25 8.00002 1.25 8.00002 1.25C8.00002 1.25 8.00002 1.25 8.00002 1.25C8.00002 1.25 8.00002 1.25 8.00002 1.25C8.00002 1.25 8.00002 1.25 8.00002 1.25C8.00002 1.25 8.00002 1.25 8.00002 1.25C8.00002 1.25 8.00002 1.25 8.00002 1.25C8.00002 1.25 8.00002 1.25 8.00002 1.25C8.00002 1.25 8.00002 1.25 8.00002 1.25C8.00002 1.25 8.00002 1.25 8.00002 1.25C8.00002 1.25 8.00002 1.25 8.00002 1.25C8.00002 1.25 8.00002 1.25 8.00002 1.25C8.00002 1.25 8.00002 1.25 8.00002 1.25C8.00002 1.25 8.00002 1.25 8.00002 1.25C8.00002 1.25 8.00002 1.25 8.00002 1.25C8.00002 1.25 8.00002 1.25 8.00002 1.25C8.00002 1.25 8.00002 1.25 8.00002 1.25C8.00002 1.25 8.00002 1.25 8.00002 1.25C8.00002 1.25 8.00002 1.25 8.00002 1.25C8.00002 1.25 8.00002 1.25 8.00002 1.25C8.00002 1.25 8.00002 1.25 8.00002 1.25C8.00002 1.25 8.00002 1.25 8.00002 1.25C8.00002 1.25 8.00002 1.25 8.00002 1.25C8.00002 1.25 8.00002 1.25 8.00002 1.25C8.00002 1.25 8.00002 1.25 8.00002 1.25C8.00002 1.25 8.00002 1.25 8.00002 1.25C8.00002 1.25 8.00002 1.25 8.00002 1.25C8.00002 1.25 8.00002 1.25 8.00002 1.25C8.00002 1.25 8.00002 1.25 8.00002 1.25C8.00002 1.25 8.00002 1.25 8.00002 1.25C8.00002 1.25 8.00002 1.25 8.00002 1.25C8.00002 1.25 8.00002 1.25 8.00002 1.25C8.00002 1.25 8.00002 1.25 8.00002 1.25C8.00002 1.25 8.00002 1.25 8.00002 1.25C8.00002 1.25 8.00002 1.25 8.00002 1.25C8.00002 1.25 8.00002 1.25 8.00002 1.25C8.00002 1.25 8.00002 1.25 8.00002 1.25C8.00002 1.25 8.00002 1.25 8.00002 1.25C8.00002 1.25 8.00002 1.25 8.00002 1.25C8.00002 1.25 8.00002 1.25 8.00002 1.25C8.00002 1.25 8.00002 1.25 8.00002 1.25C8.00002 1.25 8.00002 1.25 8.00002 1.25C8.00002 1.25 8.00002 1.25 8.00002 1.25C8.00002 1.25 8.00002 1.25 8.00002 1.25C8.00002 1.25 8.00002 1.25 8.00002 1.25C8.00002 1.25 8.00002 1.25 8.00002 1.25C8.00002 1.25 8.00002 1.25 8.00002 1.25C8.00002 1.25 8.00002 1.25 8.00002 1.25C8.00002 1.25 8.00002 1.25 8.00002 1.25C8.00002 1.25 8.00002 1.25 8.00002 1.25C8.00002 1.25 8.00002 1.25 8.00002 1.25C8.00002 1.25 8.00002 1.25 8.00002 1.25C8.00002 1.25 8.00002 1.25 8.00002 1.25C8.00002 1.25 8.00002 1.25 8.00002 1.25C8.00002 1.25 8.00002 1.25 8.00002 1.25C8.00002 1.25 8.00002 1.25 8.00002 1.25C8.00002 1.25 8.00002 1.25 8.00002 1.25C8.00002 1.25 8.00002 1.25 8.00002 1.25C8.00002 1.25 8.00002 1.25 8.00002 1.25C8.00002 1.25 8.00002 1.25 8.00002 1.25C8.00002 1.25 8.00002 1.25 8.00002 1.25C8.00002 1.25 8.00002 1.25 8.00002 1.25C8.00002 1.25 8.00002 1.25 8.00002 1.25C8.00002 1.25 8.00002 1.25 8.00002 1.25C8.00002 1.25 8.00002 1.25 8.00002 1.25C8.00002 1.25 8.00002 1.25 8.00002 1.25C8.00002 1.25 8.00002 1.25 8.00002 1.25C8.00002 1.25 8.00002 1.25 8.00002 1.25C8.00002 1.25 8.00002 1.25 8.00002 1.25C8.00002 1.25 8.00002 1.25 8.00002 1.25C8.00002 1.25 8.00002 1.25 8.00002 1.25C8.00002 1.25 8.00002 1.25 8.00002 1.25C8.00002 1.25 8.00002 1.25 8.00002 1.25C8.00002 1.25 8.00002 1.25 8.00002 1.25C8.00002 1.25 8.00002 1.25 8.00002 1.25C8.00002 1.25 8.00002 1.25 8.00002 1.25C8.00002 1.25 8.00002 1.25 8.00002 1.25C8.00002 1.25 8.00002 1.25 8.00002 1.25C8.00002 1.25 8.00002 1.25 8.00002 1.25C8.00002 1.25 8.00002 1.25 8.00002 1.25C8.00002 1.25 8.00002 1.25 8.00002 1.25C8.00002 1.25 8.00002 1.25 8.00002 1.25C8.00002 1.25 8.00002 1.25 8.00002 1.25C8.00002 1.25 8.00002 1.25 8.00002 1.25C8.00002 1.25 8.00002 1.25 8.00002 1.25C8.00002 1.25 8.00002 1.25 8.00002 1.25C8.00002 1.25 8.00002 1.25 8.00002 1.25C8.00002 1.25 8.00002 1.25 8.00002 1.25C8.00002 1.25 8.00002 1.25 8.00002 1.25C8.00002 1.25 8.00002 1.25 8.00002 1.25C8.00002 1.25 8.00002 1.25 8.00002 1.25C8.00002 1.25 8.00002 1.25 8.00002 1.25C8.00002 1.25 8.00002 1.25 8.00002 1.25C8.00002 1.25 8.00002 1.25 8.00002 1.25C8.00002 1.25 8.00002 1.25 8.00002 1.25C8.00002 1.25 8.00002 1.25 8.00002 1.25C8.00002 1.25 8.00002 1.25 8.00002 1.25C8.00002 1.25 8.00002 1.25 8.00002 1.25C8.00002 1.25 8.00002 1.25 8.00002 1.25C8.00002 1.25 8.00002 1.25 8.00002 1.25C8.00002 1.25 8.00002 1.25 8.00002 1.25C8.00002 1.25 8.00002 1.25 8.00002 1.25C8.00002 1.25 8.00002 1.25 8.00002 1.25C8.00002 1.25 8.00002 1.25 8.00002 1.25C8.00002 1.25 8.00002 1.25 8.00002 1.25C8.00002 1.25 8.00002 1.25 8.00002 1.25C8.00002 1.25 8.00002 1.25 8.00002 1.25C8.00002 1.25 8.00002 1.25 8.00002 1.25C8.00002 1.25 8.00002 1.25 8.00002 1.25C8.00002 1.25 8.00002 1.25 8.00002 1.25C8.00002 1.25 8.00002 1.25 8.00002 1.25C8.00002 1.25 8.00002 1.25 8.00002 1.25C8.00002 1.25 8.00002 1.25 8.00002 1.25C8.00002 1.25 8.00002 1.25 8.00002 1.25C8.00002 1.25 8.00002 1.25 8.00002 1.25C8.00002 1.25 8.00002 1.25 8.00002 1.25C8.00002 1.25 8.00002 1.25 8.00002 1.25C8.00002 1.25 8.00002 1.25 8.00002 1.25C8.00002 1.25 8.00002 1.25 8.00002 1.25C8.00002 1.25 8.00002 1.25 8.00002 1.25C8.00002 1.25 8.00002 1.25 8.00002 1.25C8.00002 1.25 8.00002 1.25 8.00002 1.25C8.00002 1.25 8.00002 1.25 8.00002 1.25C8.00002 1.25 8.00002 1.25 8.00002 1.25C8.00002 1.25 8.00002 1.25 8.00002 1.25C8.00002 1.25 8.00002 1.25 8.00002 1.25C8.00002 1.25 8.00002 1.25 8.00002 1.25C8.00002 1.25 8.00002 1.25 8.00002 1.25C8.00002 1.25 8.00002 1.25 8.00002 1.25C8.00002 1.25 8.00002 1.25 8.00002 1.25C8.00002 1.25 8.00002 1.25 8.00002 1.25C8.00002 1.25 8.00002 1.25 8.00002 1.25C8.00002 1.25 8.00002 1.25 8.00002 1.25C8.00002 1.25 8.00002 1.25 8.00002 1.25C8.00002 1.25 8.00002 1.25 8.00002 1.25C8.00002 1.25 8.00002 1.25 8.00002 1.25C8.00002 1.25 8.00002 1.25 8.00002 1.25C8.00002 1.25 8.00002 1.25 8.00002 1.25C8.00002 1.25 8.00002 1.25 8.00002 1.25C8.00002 1.25 8.00002 1.25 8.00002 1.25C8.00002 1.25 8.00002 1.25 8.00002 1.25C8.00002 1.25 8.00002 1.25 8.00002 1.25C8.00002 1.25 8.00002 1.25 8.00002 1.25C8.00002 1.25 8.00002 1.25 8.00002 1.25C8.00002 1.25 8.00002 1.25 8.00002 1.25C8.00002 1.25 8.00002 1.25 8.00002 1.25C8.00002 1.25 8.00002 1.25 8.00002 1.25C8.00002 1.25 8.00002 1.25 8.00002 1.25C8.00002 1.25 8.00002 1.25 8.00002 1.25C8.00002 1.25 8.00002 1.25 8.00002 1.25C8.00002 1.25 8.00002 1.25 8.00002 1.25C8.00002 1.25 8.00002 1.25 8.00002 1.25C8.00002 1.25 8.00002 1.25 8.00002 1.25C8.00002 1.25 8.00002 1.25 8.00002 1.25C8.00002 1.25 8.00002 1.25 8.00002 1.25C8.00002 1.25 8.00002 1.25 8.00002 1.25C8.00002 1.25 8.00002 1.25 8.00002 1.25C8.00002 1.25 8.00002 1.25 8.00002 1.25C8.00002 1.25 8.00002 1.25 8.00002 1.25C8.00002 1.25 8.00002 1.25 8.00002 1.25C8.00002 1.25 8.00002 1.25 8.00002 1.25C8.00002 1.25 8.00002 1.25 8.00002 1.25C8.00002 1.25 8.00002 1.25 8.00002 1.25C8.00002 1.25 8.00002 1.25 8.00002 1.25C8.00002 1.25 8.00002 1.25 8.00002 1.25C8.00002 1.25 8.00002 1.25 8.00002 1.25C8.00002 1.25 8.00002 1.25 8.00002 1.25C8.00002 1.25 8.00002 1.25 8.00002 1.25C8.00002 1.25 8.00002 1.25 8.00002 1.25C8.00002 1.25 8.00002 1.25 8.00002 1.25C8.00002 1.25 8.00002 1.25 8.00002 1.25C8.00002 1.25 8.00002 1.25 8.00002 1.25C8.00002 1.25 8.00002 1.25 8.00002 1.25C8.00002 1.25 8.00002 1.25 8.00002 1.25C8.00002 1.25 8.00002 1.25 8.00002 1.25C8.00002 1.25 8.00002 1.25 8.00002 1.25C8.00002 1.25 8.00002 1.25 8.00002 1.25C8.00002 1.25 8.00002 1.25 8.00002 1.25C8.00002 1.25 8.00002 1.25 8.00002 1.25C8.00002 1.25 8.00002 1.25 8.00002 1.25C8.00002 1.25 8.00002 1.25 8.00002 1.25C8.00002 1.25 8.00002 1.25 8.00002 1.25C8.00002 1.25 8.00002 1.25 8.00002 1.25C8.00002 1.25 8.00002 1.25 8.00002 1.25C8.00002 1.25 8.00002 1.25 8.00002 1.25C8.00002 1.25 8.00002 1.25 8.00002 1.25C8.00002 1.25 8.00002 1.25 8.00002 1.25C8.00002 1.25 8.00002 1.25 8.00002 1.25C8.00002 1.25 8.00002 1.25 8.00002 1.25C8.00002 1.25 8.00002 1.25 8.00002 1.25C8.00002 1.25 8.00002 1.25 8.00002 1.25C8.00002 1.25 8.00002 1.25 8.00002 1.25C8.00002 1.25 8.00002 1.25 8.00002 1.25C8.00002 1.25 8.00002 1.25 8.00002 1.25C8.00002 1.25 8.00002 1.25 8.00002 1.25C8.00002 1.25 8.00002 1.25 8.00002 1.25C8.00002 1.25 8.00002 1.25 8.00002 1.25C8.00002 1.25 8.00002 1.25 8.00002 1.25C8.00002 1.25 8.00002 1.25 8.00002 1.25C8.00002 1.25 8.00002 1.25 8.00002 1.25C8.00002 1.25 8.00002 1.25 8.00002 1.25C8.00002 1.25 8.00002 1.25 8.00002 1.25C8.00002 1.25 8.00002 1.25 8.00002 1.25C8.00002 1.25 8.00002 1.25 8.00002 1.25C8.00002 1.25 8.00002 1.25 8.00002 1.25C8.00002 1.25 8.00002 1.25 8.00002 1.25C8.00002 1.25 8.00002 1.25 8.00002 1.25C8.00002 1.25 8.00002 1.25 8.00002 1.25C8.00002 1.25 8.00002 1.25 8.00002 1.25C8.00002 1.25 8.00002 1.25 8.00002 1.25C8.00002 1.25 8.00002 1.25 8.00002 1.25C8.00002 1.25 8.00002 1.25 8.00002 1.25C8.00002 1.25 8.00002 1.25 8.00002 1.25C8.00002 1.25 8.00002 1.25 8.00002 1.25C8.00002 1.25 8.00002 1.25 8.00002 1.25C8.00002 1.25 8.00002 1.25 8.00002 1.25C8.00002 1.25 8.00002 1.25 8.00002 1.25C8.00002 1.25 8.00002 1.25 8.00002 1.25C8.00002 1.25 8.00002 1.25 8.00002 1.25C8.00002 1.25 8.00002 1.25 8.00002 1.25C8.00002 1.25 8.00002 1.25 8.00002 1.25C8.00002 1.25 8.00002 1.25 8.00002 1.25C8.00002 1.25 8.00002 1.25 8.00002 1.25C8.00002 1.25 8.00002 1.25 8.00002 1.25C8.00002 1.25 8.00002 1.25 8.00002 1.25C8.00002 1.25 8.00002 1.25 8.00002 1.25C8.00002 1.25 8.00002 1.25 8.00002 1.25C8.00002 1.25 8.00002 1.25 8.00002 1.25C8.00002 1.25 8.00002 1.25 8.00002 1.25C8.00002 1.25 8.00002 1.25 8.00002 1.25C8.00002 1.25 8.00002 1.25 8.00002 1.25C8.00002 1.25 8.00002 1.25 8.00002 1.25C8.00002 1.25 8.00002 1.25 8.00002 1.25C8.00002 1.25 8.00002 1.25 8.00002 1.25C8.00002 1.25 8.00002 1.25 8.00002 1.25C8.00002 1.25 8.00002 1.25 8.00002 1.25C8.00002 1.25 8.00002 1.25 8.00002 1.25C8.00002 1.25 8.00002 1.25 8.00002 1.25C8.00002 1.25 8.00002 1.25 8.00002 1.25C8.00002 1.25 8.00002 1.25 8.00002 1.25C8.00002 1.25 8.00002 1.25 8.00002 1.25C8.00002 1.25 8.00002 1.25 8.00002 1.25C8.00002 1.25 8.00002 1.25 8.00002 1.25C8.00002 1.25 8.00002 1.25 8.00002 1.25C8.00002 1.25 8.00002 1.25 8.00002 1.25C8.00002 1.25 8.00002 1.25 8.00002 1.25C8.00002 1.25 8.00002 1.25 8.00002 1.25C8.00002 1.25 8.00002 1.25 8.00002 1.25C8.00002 1.25 8.00002 1.25 8.00002 1.25C8.00002 1.25 8.00002 1.25 8.00002 1.25C8.00002 1.25 8.00002 1.25 8.00002 1.25C8.00002 1.25 8.00002 1.25 8.00002 1.25C8.00002 1.25 8.00002 1.25 8.00002 1.25C8.00002 1.25 8.00002 1.25 8.00002 1.25C8.00002 1.25 8.00002 1.25 8.00002 1.25C8.00002 1.25 8.00002 1.25 8.00002 1.25C8.00002 1.25 8.00002 1.25 8.00002 1.25C8.00002 1.25 8.00002 1.25 8.00002 1.25C8.00002 1.25 8.00002 1.25 8.00002 1.25C8.00002 1.25 8.00002 1.25 8.00002 1.25C8.00002 1.25 8.00002 1.25 8.00002 1.25C8.00002 1.25 8.00002 1.25 8.00002 1.25C8.00002 1.25 8.00002 1.25 8.00002 1.25C8.00002 1.25 8.00002 1.25 8.00002 1.25C8.00002 1.25 8.00002 1.25 8.00002 1.25C8.00002 1.25 8.00002 1.25 8.00002 1.25C8.00002 1.25 8.00002 1.25 8.00002 1.25C8.00002 1.25 8.00002 1.25 8.00002 1.25C8.00002 1.25 8.00002 1.25 8.00002 1.25C8.00002 1.25 8.00002 1.25 8.00002 1.25C8.00002 1.25 8.00002 1.25 8.00002 1.25C8.00002 1.25 8.00002 1.25 8.00002 1.25C8.00002 1.25 8.00002 1.25 8.00002 1.25C8.00002 1.25 8.00002 1.25 8.00002 1.25C8.00002 1.25 8.00002 1.25 8.00002 1.25C8.00002 1.25 8.00002 1.25 8.00002 1.25C8.00002 1.25 8.00002 1.25 8.00002 1.25C8.00002 1.25 8.00002 1.25 8.00002 1.25C8.00002 1.25 8.00002 1.25 8.00002 1.25C8.00002 1.25 8.00002 1.25 8.00002 1.25C8.00002 1.25 8.00002 1.25 8.00002 1.25C8.00002 1.25 8.00002 1.25 8.00002 1.25C8.00002 1.25 8.00002 1.25 8.00002 1.25C8.00002 1.25 8.00002 1.25 8.00002 1.25C8.00002 1.25 8.00002 1.25 8.00002 1.25C8.00002 1.25 8.00002 1.25 8.00002 1.25C8.00002 1.25 8.00002 1.25 8.00002 1.25C8.00002 1.25 8.00002 1.25 8.00002 1.25C8.00002 1.25 8.00002 1.25 8.00002 1.25C8.00002 1.25 8.00002 1.25 8.00002 1.25C8.00002 1.25 8.00002 1.25 8.00002 1.25C8.00002 1.25 8.00002 1.25 8.00002 1.25C8.00002 1.25 8.00002 1.25 8.00002 1.25C8.00002 1.25 8.00002 1.25 8.00002 1.25C8.00002 1.25 8.00002 1.25 8.00002 1.25C8.00002 1.25 8.00002 1.25 8.00002 1.25C8.00002 1.25 8.00002 1.25 8.00002 1.25C8.00002 1.25 8.00002 1.25 8.00002 1.25C8.00002 1.25 8.00002 1.25 8.00002 1.25C8.00002 1.25 8.00002 1.25 8.00002 1.25C8.00002 1.25 8.00002 1.25 8.00002 1.25C8.00002 1.25 8.00002 1.25 8.00002 1.25C8.00002 1.25 8.00002 1.25 8.00002 1.25C8.00002 1.25 8.00002 1.25 8.00002 1.25C8.00002 1.25 8.00002 1.25 8.00002 1.25C8.00002 1.25 8.00002 1.25 8.00002 1.25C8.00002 1.25 8.00002 1.25 8.00002 1.25C8.00002 1.25 8.00002 1.25 8.00002 1.25C8.00002 1.25 8.00002 1.25 8.00002 1.25C8.00002 1.25 8.00002 1.25 8.00002 1.25C8.00002 1.25 8.00002 1.25 8.00002 1.25C8.00002 1.25 8.00002 1.25 8.00002 1.25C8.00002 1.25 8.00002 1.25 8.00002 1.25C8.00002 1.25 8.00002 1.25 8.00002 1.25C8.00002 1.25 8.00002 1.25 8.00002 1.25C8.00002 1.25 8.00002 1.25 8.00002 1.25C8.00002 1.25 8.00002 1.25 8.00002 1.25C8.00002 1.25 8.00002 1.25 8.00002 1.25C8.00002 1.25 8.00002 1.25 8.00002 1.25C8.00002 1.25 8.00002 1.25 8.00002 1.25C8.00002 1.25 8.00002 1.25 8.00002 1.25C8.00002 1.25 8.00002 1.25 8.00002 1.25C8.00002 1.25 8.00002 1.25 8.00002 1.25C8.00002 1.25 8.00002 1.25 8.00002 1.25C8.00002 1.25 8.00002 1.25 8.00002 1.25C8.00002 1.25 8.00002 1.25 8.00002 1.25C8.00002 1.25 8.00002 1.25 8.00002 1.25C8.00002 1.25 8.00002 1.25 8.00002 1.25C8.00002 1.25 8.00002 1.25 8.00002 1.25C8.00002 1.25 8.00002 1.25 8.00002 1.25C8.00002 1.25 8.00002 1.25 8.00002 1.25C8.00002 1.25 8.00002 1.25 8.00002 1.25C8.00002 1.25 8.00002 1.25 8.00002 1.25C8.00002 1.25 8.00002 1.25 8.00002 1.25C8.00002 1.25 8.00002 1.25 8.00002 1.25C8.00002 1.25 8.00002 1.25 8.00002 1.25C8.00002 1.25 8.00002 1.25 8.00002 1.25C8.00002 1.25 8.00002 1.25 8.00002 1.25C8.00002 1.25 8.00002 1.25 8.00002 1.25C8.00002 1.25 8.00002 1.25 8.00002 1.25C8.00002 1.25 8.00002 1.25 8.00002 1.25C8.00002 1.25 8.00002 1.25 8.00002 1.25C8.00002 1.25 8.00002 1.25 8.00002 1.25C8.00002 1.25 8.00002 1.25 8.00002 1.25C8.00002 1.25 8.00002 1.25 8.00002 1.25C8.00002 1.25 8.00002 1.25 8.00002 1.25C8.00002 1.25 8.00002 1.25 8.00002 1.25C8.00002 1.25 8.00002 1.25 8.00002 1.25C8.00002 1.25 8.00002 1.25 8.00002 1.25C8.00002 1.25 8.00002 1.25 8.00002 1.25C8.00002 1.25 8.00002 1.25 8.00002 1.25C8.00002 1.25 8.00002 1.25 8.00002 1.25C8.00002 1.25 8.00002 1.25 8.00002 1.25C8.00002 1.25 8.00002 1.25 8.00002 1.25C8.00002 1.25 8.00002 1.25 8.00002 1.25C8.00002 1.25 8.00002 1.25 8.00002 1.25C8.00002 1.25 8.00002 1.25 8.00002 1.25C8.00002 1.25 8.00002 1.25 8.00002 1.25C8.00002 1.25 8.00002 1.25 8.00002 1.25C8.00002 1.25 8.00002 1.25 8.00002 1.25C8.00002 1.25 8.00002 1.25 8.00002 1.25C8.00002 1.25 8.00002 1.25 8.00002 1.25C8.00002 1.25 8.00002 1.25 8.00002 1.25C8.00002 1.25 8.00002 1.25 8.00002 1.25C8.00002 1.25 8.00002 1.25 8.00002 1.25C8.00002 1.25 8.00002 1.25 8.00002 1.25C8.00002 1.25 8.00002 1.25 8.00002 1.25C8.00002 1.25 8.00002 1.25 8.00002 1.25C8.00002 1.25 8.00002 1.25 8.00002 1.25C8.00002 1.25 8.00002 1.25 8.00002 1.25C8.00002 1.25 8.00002 1.25 8.00002 1.25C8.00002 1.25 8.00002 1.25 8.00002 1.25C8.00002 1.25 8.00002 1.25 8.00002 1.25C8.00002 1.25 8.00002 1.25 8.00002 1.25C8.00002 1.25 8.00002 1.25 8.00002 1.25C8.00002 1.25 8.00002 1.25 8.00002 1.25C8.00002 1.25 8.00002 1.25 8.00002 1.25C8.00002 1.25 8.00002 1.25 8.00002 1.25C8.00002 1.25 8.00002 1.25 8.00002 1.25C8.00002 1.25 8.00002 1.25 8.00002 1.25C8.00002 1.25 8.00002 1.25 8.00002 1.25C8.00002 1.25 8.00002 1.25 8.00002 1.25C8.00002 1.25 8.00002 1.25 8.00002 1.25C8.00002 1.25 8.00002 1.25 8.00002 1.25C8.00002 1.25 8.00002 1.25 8.00002 1.25C8.00002 1.25 8.00002 1.25 8.00002 1.25C8.00002 1.25 8.00002 1.25 8.00002 1.25C8.00002 1.25 8.00002 1.25 8.00002 1.25C8.00002 1.25 8.00002 1.25 8.00002 1.25C8.00002 1.25 8.00002 1.25 8.00002 1.25C8.00002 1.25 8.00002 1.25 8.00002 1.25C8.00002 1.25 8.00002 1.25 8.00002 1.25C8.00002 1.25 8.00002 1.25 8.00002 1.25C8.00002 1.25 8.00002 1.25 8.00002 1.25C8.00002 1.25 8.00002 1.25 8.00002 1.25C8.00002 1.25 8.00002 1.25 8.00002 1.25C8.00002 1.25 8.00002 1.25 8.00002 1.25C8.00002 1.25 8.00002 1.25 8.00002 1.25C8.00002 1.25 8.00002 1.25 8.00002 1.25C8.00002 1.25 8.00002 1.25 8.00002 1.25C8.00002 1.25 8.00002 1.25 8.00002 1.25C8.00002 1.25 8.00002 1.25 8.00002 1.25C8.00003 1.25 8.00003 1.25 8.00003 1.25C8.00003 1.25 8.00003 1.25 8.00003 1.25C8.00003 1.25 8.00003 1.25 8.00003 1.25C8.00003 1.25 8.00003 1.25 8.00003 1.25C8.00003 1.25 8.00003 1.25 8.00003 1.25C8.00003 1.25 8.00003 1.25 8.00003 1.25C8.00003 1.25 8.00003 1.25 8.00003 1.25C8.00003 1.25 8.00003 1.25 8.00003 1.25C8.00003 1.25 8.00003 1.25 8.00003 1.25C8.00003 1.25 8.00003 1.25 8.00003 1.25C8.00003 1.25 8.00003 1.25 8.00003 1.25C8.00003 1.25 8.00003 1.25 8.00003 1.25C8.00003 1.25 8.00003 1.25 8.00003 1.25C8.00003 1.25 8.00003 1.25 8.00003 1.25C8.00003 1.25 8.00003 1.25 8.00003 1.25C8.00003 1.25 8.00003 1.25 8.00003 1.25C8.00003 1.25 8.00003 1.25 8.00003 1.25C8.00003 1.25 8.00003 1.25 8.00003 1.25C8.00003 1.25 8.00003 1.25 8.00003 1.25C8.00003 1.25 8.00003 1.25 8.00003 1.25C8.00003 1.25 8.00003 1.25 8.00003 1.25C8.00003 1.25 8.00003 1.25 8.00003 1.25C8.00003 1.25 8.00003 1.25 8.00003 1.25C8.00003 1.25 8.00003 1.25 8.00003 1.25C8.00003 1.25 8.00003 1.25 8.00003 1.25C8.00003 1.25 8.00003 1.25 8.00003 1.25C8.00003 1.25 8.00003 1.25 8.00003 1.25C8.00003 1.25 8.00003 1.25 8.00003 1.25C8.00003 1.25 8.00003 1.25 8.00003 1.25C8.00003 1.25 8.00003 1.25 8.00003 1.25C8.00003 1.25 8.00003 1.25 8.00003 1.25C8.00003 1.25 8.00003 1.25 8.00003 1.25C8.00003 1.25 8.00003 1.25 8.00003 1.25C8.00003 1.25 8.00003 1.25 8.00003 1.25C8.00003 1.25 8.00003 1.25 8.00003 1.25C8.00003 1.25 8.00003 1.25 8.00003 1.25C8.00003 1.25 8.00003 1.25 8.00003 1.25C8.00003 1.25 8.00003 1.25 8.00003 1.25C8.00003 1.25 8.00003 1.25 8.00003 1.25C8.00003 1.25 8.00003 1.25 8.00003 1.25C8.00003 1.25 8.00003 1.25 8.00003 1.25C8.00003 1.25 8.00003 1.25 8.00003 1.25C8.00003 1.25 8.00003 1.25 8.00003 1.25C8.00003 1.25 8.00003 1.25 8.00003 1.25C8.00003 1.25 8.00003 1.25 8.00003 1.25V-1.25Z" fill="black" mask="url(#path-2-inside-1_961_16)"/>
<mask id="path-4-inside-2_961_16" fill="white">
<path fill-rule="evenodd" clip-rule="evenodd" d="M0.0839844 9.16391C0.290056 9.07395 0.500632 8.99242 0.715271 8.91976C1.69154 9.91025 3.04548 10.5286 4.54607 10.5401C5.67805 10.5488 6.7319 10.211 7.60691 9.62577C8.79785 8.9399 10.1814 8.5521 11.655 8.56343C13.1785 8.57514 14.5993 9.01197 15.8056 9.7605C15.0036 13.3318 11.8133 16 7.99993 16C3.97697 16 0.647573 13.0305 0.0839844 9.16391Z"/>
</mask>
<path d="M0.715271 8.91976L1.60552 8.04229L1.05598 7.48474L0.314461 7.73576L0.715271 8.91976ZM0.0839844 9.16391L-0.416139 8.01832L-1.29056 8.40006L-1.15295 9.3442L0.0839844 9.16391ZM4.54607 10.5401L4.55568 9.29014L4.55568 9.29014L4.54607 10.5401ZM7.60691 9.62577L6.98308 8.54256L6.9468 8.56345L6.912 8.58673L7.60691 9.62577ZM11.655 8.56343L11.6454 9.81339L11.655 8.56343ZM15.8056 9.7605L17.0252 10.0344L17.22 9.16705L16.4646 8.69836L15.8056 9.7605ZM0.314461 7.73576C0.0660181 7.81986 -0.177687 7.91422 -0.416139 8.01832L0.584108 10.3095C0.757799 10.2337 0.935245 10.165 1.11608 10.1038L0.314461 7.73576ZM4.55568 9.29014C3.3997 9.28125 2.35872 8.80646 1.60552 8.04229L-0.174982 9.79723C1.02437 11.014 2.69126 11.7759 4.53646 11.7901L4.55568 9.29014ZM6.912 8.58673C6.23877 9.03698 5.42916 9.29685 4.55568 9.29014L4.53646 11.7901C5.92694 11.8008 7.22503 11.385 8.30181 10.6648L6.912 8.58673ZM11.6646 7.31346C9.96283 7.30039 8.36135 7.74881 6.98308 8.54256L8.23073 10.709C9.23435 10.131 10.4 9.80382 11.6454 9.81339L11.6646 7.31346ZM16.4646 8.69836C15.0687 7.8322 13.4242 7.32699 11.6646 7.31346L11.6454 9.81339C12.9328 9.82329 14.1298 10.1917 15.1465 10.8226L16.4646 8.69836ZM14.586 9.48661C13.9093 12.4997 11.2159 14.75 7.99993 14.75V17.25C12.4108 17.25 16.0978 14.164 17.0252 10.0344L14.586 9.48661ZM7.99993 14.75C4.60665 14.75 1.79627 12.2449 1.32091 8.98362L-1.15295 9.3442C-0.501129 13.8161 3.34729 17.25 7.99993 17.25V14.75Z" fill="black" mask="url(#path-4-inside-2_961_16)"/>
</svg>
